<svg xmlns="http://www.w3.org/2000/svg" width="14" height="14"><path d="M14 2h-2v-2h-1v2h-2v1h2v2h1v-2h2zm-7.162 5.671c-.373-.263-1.086-.906-1.086-1.284 0-.441.126-.66.792-1.18.683-.534 1.165-1.117 1.165-1.99 0-1.037-.461-2.217-1.329-2.217h1.309l.925-1h-4.128c-1.852 0-3.594 1.401-3.594 3.026 0 1.659 1.262 2.999 3.145 2.999l.383-.011c-.123.233-.21.496-.21.77 0 .46.248.835.562 1.14l-.716.008c-2.292-.001-4.056 1.459-4.056 2.972 0 1.491 1.934 2.423 4.226 2.423 2.612 0 4.056-1.482 4.056-2.974 0-1.195-.353-1.911-1.444-2.682zm-2.204-2.068c-1.064-.031-2.074-1.189-2.258-2.585-.184-1.396.53-2.466 1.593-2.434 1.063.032 2.075 1.152 2.258 2.549.183 1.397-.53 2.503-1.593 2.47zm-.416 7.065c-1.585 0-2.729-1.002-2.729-2.208 0-1.18 1.419-2.161 3.003-2.145.37.003.714.062 1.027.164.859.598 1.478.936 1.651 1.618.033.137.05.28.05.424.001 1.207-.776 2.147-3.002 2.147z" fill="#fff"/></svg>