<svg xmlns="http://www.w3.org/2000/svg" width="14" height="14"><path fill="#fff" d="M14 2.658c-.516.229-1.068.383-1.649.453.593-.355 1.048-.918 1.263-1.589-.555.329-1.17.568-1.824.697-.523-.559-1.27-.907-2.096-.907-1.587 0-2.873 1.286-2.873 2.872 0 .225.025.444.075.655-2.387-.12-4.504-1.263-5.92-3.001-.248.423-.39.917-.39 1.443 0 .997.507 1.875 1.278 2.391-.471-.015-.914-.144-1.302-.36v.036c0 1.392.99 2.553 2.304 2.816-.241.066-.494.102-.756.102-.185 0-.365-.018-.541-.051.365 1.141 1.426 1.972 2.683 1.994-.983.771-2.222 1.229-3.567 1.229-.232 0-.46-.014-.685-.04 1.271.815 2.781 1.29 4.403 1.29 5.283 0 8.172-4.376 8.172-8.172l-.009-.372c.562-.404 1.049-.91 1.434-1.486z"/></svg>