<svg xmlns="http://www.w3.org/2000/svg" width="644" height="705.391"><path fill="#0070BA" d="M249.599 509.122l17.599-32.296-4.83-2.632-17.899 32.851c-11.108-4.131-23.124-6.398-35.67-6.398-56.54 0-102.371 45.836-102.371 102.372 0 56.54 45.831 102.373 102.371 102.373 56.541 0 102.373-45.833 102.373-102.373-.002-42.032-25.343-78.132-61.573-93.897zm-41.18-119.473h-53.745c-1.936-41.017-35.795-73.677-77.29-73.677-42.738 0-77.384 34.647-77.384 77.386 0 42.737 34.646 77.383 77.385 77.383 42.138 0 76.383-33.684 77.338-75.592h53.696v-5.5zm98.481-270.008c0-66.077-53.565-119.641-119.642-119.641-66.076 0-119.64 53.564-119.64 119.641s53.564 119.642 119.641 119.642c14.911 0 29.181-2.736 42.346-7.719l29.793 50.73 4.742-2.785-29.385-50.033c42.445-18.381 72.145-60.637 72.145-109.835zm182.246-33.893c-50.936 0-92.226 41.291-92.226 92.225 0 28.736 13.146 54.4 33.748 71.313l-37.765 37.393 3.87 3.908 37.995-37.621-2.044-2.063c15.599 12.085 35.162 19.296 56.421 19.296 50.935 0 92.226-41.291 92.226-92.226.001-50.934-41.29-92.225-92.225-92.225z"/><g fill="#0070BA"><circle cx="566.574" cy="390.538" r="77.428"/><path d="M439.311 386.16v5.5h49.835v-5.5z"/></g><path fill="#0070BA" d="M479.901 507.949c-16.979 0-32.688 5.393-45.547 14.531l.68-.509-37.995-50.644-4.399 3.3 37.996 50.644.438-.33c-18.208 14.42-29.902 36.706-29.902 61.738 0 43.482 35.245 78.73 78.729 78.73 43.481 0 78.73-35.248 78.73-78.73s-35.248-78.73-78.73-78.73z"/><path d="M461.575 145.014c1.018 0 1.882.148 2.597.444.714.296 1.297.688 1.745 1.173.445.487.773 1.042.978 1.664.207.623.309 1.269.309 1.938 0 .653-.102 1.295-.309 1.925-.204.63-.532 1.189-.978 1.675-.448.486-1.031.877-1.745 1.173-.715.296-1.579.444-2.597.444h-3.762v5.834h-3.576v-16.271h7.338zm-.98 7.657c.411 0 .806-.03 1.184-.091.382-.061.715-.179 1.005-.353.287-.175.519-.422.692-.741.175-.319.264-.737.264-1.253 0-.516-.089-.935-.264-1.253-.174-.319-.405-.566-.692-.741-.29-.174-.623-.292-1.005-.353-.378-.061-.772-.09-1.184-.09h-2.781v4.876h2.781zm11.828-7.657v16.271h-3.238v-16.271h3.238zm2.984 6.221c.334-.501.76-.904 1.275-1.208.517-.304 1.099-.521 1.744-.649s1.295-.194 1.948-.194c.592 0 1.192.042 1.801.125.606.084 1.161.247 1.663.49.501.243.912.581 1.23 1.014.319.433.479 1.007.479 1.72v6.13c0 .532.029 1.041.091 1.527.061.486.166.851.318 1.093h-3.281c-.061-.183-.11-.368-.148-.559-.037-.189-.064-.383-.079-.581-.517.532-1.125.904-1.823 1.117-.699.212-1.414.319-2.143.319-.562 0-1.086-.069-1.572-.205-.486-.137-.912-.35-1.275-.638-.365-.288-.65-.653-.855-1.094-.206-.44-.308-.965-.308-1.572 0-.668.118-1.219.353-1.652.235-.433.54-.779.912-1.037.372-.258.798-.452 1.277-.581.478-.129.96-.231 1.445-.308.486-.076.966-.136 1.438-.182.47-.045.889-.114 1.252-.206.365-.09.653-.223.866-.398.212-.175.312-.429.297-.764 0-.349-.058-.626-.172-.832-.112-.205-.266-.365-.455-.479-.19-.114-.411-.189-.661-.228-.251-.038-.521-.057-.81-.057-.638 0-1.138.137-1.503.41-.365.273-.578.729-.639 1.367h-3.235c.047-.756.236-1.386.57-1.888zm6.393 4.57c-.205.068-.426.125-.661.171-.236.046-.483.083-.741.114-.259.03-.517.068-.774.113-.243.046-.481.107-.718.183-.235.076-.441.179-.615.308-.175.129-.315.292-.422.49-.105.197-.16.448-.16.752 0 .289.055.531.16.729.106.198.251.353.434.467.182.114.395.194.638.24.243.045.493.067.752.067.638 0 1.132-.106 1.481-.319.349-.212.606-.467.774-.763.167-.296.27-.596.308-.9.037-.303.058-.546.058-.729v-1.208c-.138.121-.309.216-.514.285zm10.607 8.99c-.623.41-1.489.615-2.599.615-.334 0-.664-.012-.991-.034l-.99-.08v-2.666l.935.091c.318.03.638.038.957.022.425-.045.74-.213.945-.501.205-.289.308-.608.308-.958 0-.258-.046-.501-.137-.729l-4.125-11.053h3.441l2.666 8.067h.046l2.575-8.067h3.35l-4.922 13.24c-.35.959-.836 1.643-1.459 2.053zm6.244-13.127v-2.165h1.938v-.911c0-1.049.326-1.907.979-2.575.653-.669 1.642-1.003 2.963-1.003.289 0 .577.011.866.034l.843.057v2.416c-.38-.046-.774-.069-1.186-.069-.44 0-.756.103-.945.308-.19.205-.284.551-.284 1.037v.707h2.232v2.165h-2.232v9.617h-3.236v-9.617h-1.938zm16.796 9.617v-1.641h-.068c-.411.684-.942 1.178-1.595 1.481-.654.304-1.321.456-2.007.456-.865 0-1.576-.114-2.13-.342-.555-.228-.991-.551-1.311-.969-.318-.417-.543-.927-.672-1.527s-.193-1.265-.193-1.994v-7.247h3.236v6.654c0 .973.151 1.698.455 2.176.303.479.843.718 1.617.718.881 0 1.52-.262 1.915-.786.395-.523.592-1.386.592-2.586v-6.176h3.236v11.782h-3.075zm8.865-16.271v16.271h-3.237v-16.271h3.237zm-63.462 24.973v4.781h.035c.25-.513.645-.886 1.182-1.119s1.128-.349 1.772-.349c.717 0 1.34.131 1.871.394.532.262.973.618 1.324 1.065.354.447.62.964.798 1.549.18.584.269 1.206.269 1.862 0 .656-.086 1.277-.258 1.861-.175.585-.438 1.096-.79 1.531-.352.436-.795.779-1.323 1.029-.532.251-1.149.376-1.854.376-.229 0-.48-.023-.763-.071-.279-.048-.559-.125-.832-.233-.274-.107-.534-.253-.779-.438-.244-.186-.451-.415-.617-.689h-.035v1.235h-1.522v-12.784h1.522zm5.469 6.813c-.115-.412-.287-.779-.521-1.101-.231-.322-.529-.579-.895-.77s-.792-.287-1.28-.287c-.514 0-.948.102-1.306.305-.359.203-.652.468-.878.797-.229.328-.392.701-.494 1.119-.101.417-.15.841-.15 1.271 0 .454.054.893.161 1.317.107.423.276.796.511 1.118.23.323.534.582.904.779.368.197.816.295 1.343.295.523 0 .964-.101 1.316-.305.352-.203.634-.471.849-.806.215-.333.37-.716.467-1.146.094-.43.143-.871.143-1.325 0-.429-.056-.849-.17-1.261zm9.802 5.971v-1.468h-.034c-.322.573-.734.994-1.237 1.262-.501.269-1.091.403-1.772.403-.607 0-1.115-.081-1.521-.242-.407-.161-.735-.391-.985-.689-.25-.298-.428-.653-.528-1.064-.102-.413-.153-.869-.153-1.371v-6.087h1.523v6.267c0 .573.166 1.027.5 1.361.335.334.795.501 1.379.501.467 0 .869-.072 1.209-.214.341-.144.624-.347.852-.609.227-.262.396-.57.51-.922.113-.352.171-.736.171-1.155v-5.228h1.521v9.257h-1.435zm7.683-9.256v1.342h-1.845v5.748c0 .18.015.322.045.43.029.107.087.191.17.25.084.06.2.099.35.117.149.018.344.027.583.027h.697v1.342h-1.164c-.395 0-.731-.027-1.012-.081-.281-.054-.508-.152-.68-.295-.173-.143-.302-.346-.385-.609-.084-.262-.125-.609-.125-1.039v-5.891h-1.576v-1.342h1.576v-2.775h1.521v2.775h1.845zm8.092 0v1.468h.036c.633-1.122 1.636-1.683 3.008-1.683.609 0 1.117.084 1.522.25.405.167.734.4.984.699.251.298.427.653.529 1.064.101.413.151.869.151 1.371v6.087h-1.521v-6.267c0-.572-.168-1.026-.502-1.36s-.793-.501-1.379-.501c-.465 0-.867.072-1.208.214-.34.144-.623.347-.851.609-.227.262-.397.57-.51.922-.114.352-.171.737-.171 1.155v5.228h-1.522v-9.257h1.434zm8.309 2.73c.192-.591.478-1.104.86-1.539.382-.436.854-.779 1.414-1.03.562-.25 1.206-.376 1.934-.376.74 0 1.389.125 1.943.376.556.25 1.022.594 1.405 1.03.382.436.669.948.859 1.539.19.592.287 1.227.287 1.908 0 .68-.097 1.313-.287 1.897-.19.585-.478 1.096-.859 1.531-.383.437-.85.776-1.405 1.021-.555.245-1.203.367-1.943.367-.728 0-1.372-.122-1.934-.367-.561-.245-1.032-.584-1.414-1.021-.383-.435-.668-.946-.86-1.531-.19-.584-.286-1.218-.286-1.897 0-.682.096-1.317.286-1.908zm1.55 3.402c.148.436.354.8.617 1.092.264.293.569.517.923.671.352.155.725.233 1.118.233.395 0 .767-.078 1.12-.233.352-.155.659-.378.922-.671.262-.292.468-.656.618-1.092.148-.436.223-.934.223-1.495 0-.562-.074-1.06-.223-1.495-.15-.436-.356-.803-.618-1.101-.263-.299-.57-.526-.922-.681-.354-.155-.726-.233-1.12-.233-.394 0-.767.078-1.118.233-.354.155-.659.382-.923.681-.263.298-.469.665-.617 1.101-.149.436-.225.934-.225 1.495s.075 1.059.225 1.495zm12.9-6.132v1.342h-1.845v5.748c0 .18.015.322.044.43s.088.191.171.25c.083.06.2.099.349.117.149.018.344.027.583.027h.698v1.342h-1.164c-.395 0-.732-.027-1.013-.081s-.508-.152-.68-.295c-.173-.143-.302-.346-.385-.609-.083-.262-.125-.609-.125-1.039v-5.891h-1.576v-1.342h1.576v-2.775h1.521v2.775h1.846zm-49.34 23.098c-.381-.322-.895-.483-1.539-.483-.55 0-1.01.102-1.38.305-.368.203-.663.471-.886.806-.221.334-.379.719-.473 1.155-.097.436-.146.886-.146 1.352 0 .43.051.848.153 1.253.102.406.261.767.476 1.083.214.317.493.57.84.761.347.191.758.287 1.235.287.752 0 1.34-.197 1.765-.591.424-.394.682-.949.778-1.666h1.558c-.166 1.146-.593 2.029-1.28 2.649-.686.621-1.62.932-2.802.932-.703 0-1.329-.114-1.871-.34-.543-.227-.996-.549-1.361-.967-.363-.418-.638-.916-.823-1.495s-.276-1.215-.276-1.907.088-1.34.269-1.943c.178-.603.449-1.128.814-1.576.362-.448.819-.8 1.369-1.057.549-.256 1.188-.385 1.915-.385.526 0 1.018.062 1.478.188.459.125.867.32 1.219.582.352.263.642.594.867.994.229.4.371.875.43 1.423h-1.576c-.119-.584-.369-1.037-.753-1.36zm5.606-5.139v4.888h.036c.118-.287.286-.528.501-.725.215-.197.457-.358.726-.483.269-.125.549-.217.842-.278.292-.059.576-.089.85-.089.609 0 1.117.084 1.522.25.406.168.734.4.984.699.251.298.427.653.529 1.065.101.412.151.869.151 1.37v6.088h-1.521v-6.267c0-.573-.167-1.026-.502-1.361-.334-.333-.793-.501-1.379-.501-.465 0-.867.072-1.208.215-.34.144-.623.346-.851.609-.227.262-.397.57-.51.922-.114.352-.171.737-.171 1.155v5.229h-1.522v-12.785h1.523zm8.523 1.862v-1.862h1.522v1.862h-1.522zm1.523 1.665v9.257h-1.522v-9.257h1.522zm3.974-3.527v12.785h-1.522v-12.785h1.522zm9.114 12.785v-1.253h-.036c-.25.514-.645.883-1.182 1.11-.537.226-1.128.34-1.772.34-.716 0-1.341-.131-1.872-.394-.53-.263-.972-.615-1.324-1.057-.353-.442-.618-.955-.797-1.54-.179-.585-.269-1.205-.269-1.862s.086-1.277.259-1.862c.174-.584.437-1.095.788-1.531.352-.436.794-.782 1.325-1.039.532-.256 1.149-.385 1.854-.385.238 0 .495.024.771.072.273.048.549.128.823.242.275.113.534.263.778.447.244.185.451.416.618.689h.036v-4.763h1.522v12.785h-1.522zm-5.471-3.286c.113.412.286.779.52 1.101.232.322.53.579.895.77.365.191.791.287 1.281.287.513 0 .949-.102 1.306-.305.359-.203.651-.468.879-.797.227-.328.391-.701.492-1.119.101-.418.152-.841.152-1.271 0-.454-.054-.892-.161-1.316-.107-.423-.278-.797-.511-1.119-.232-.323-.534-.582-.904-.779-.37-.197-.818-.295-1.344-.295-.513 0-.947.102-1.306.305s-.645.471-.859.806-.371.716-.466 1.146c-.096.43-.144.872-.144 1.325 0 .429.056.849.17 1.261zm9.427-7.637v-1.862h1.523v1.862h-1.523zm1.523 1.665v9.257h-1.523v-9.257h1.523zm3.526 7.189c.144.233.332.418.564.555.233.137.495.236.788.295.292.06.593.09.904.09.238 0 .489-.018.752-.054.262-.036.504-.102.726-.197.22-.096.402-.236.545-.42.144-.186.216-.421.216-.708 0-.394-.15-.692-.448-.896s-.671-.367-1.118-.492c-.448-.125-.935-.238-1.46-.34-.526-.102-1.012-.245-1.459-.43-.447-.185-.82-.444-1.12-.779-.298-.334-.447-.8-.447-1.396 0-.466.104-.865.313-1.2s.478-.606.807-.815c.327-.209.698-.364 1.109-.465.412-.101.821-.152 1.227-.152.525 0 1.009.045 1.45.134.442.089.833.245 1.174.465.34.222.61.52.813.896s.322.845.358 1.406h-1.522c-.022-.299-.101-.546-.232-.743-.132-.197-.298-.355-.501-.475-.204-.119-.427-.206-.671-.26-.246-.054-.493-.081-.744-.081-.227 0-.456.018-.688.054-.233.036-.446.099-.637.188-.19.09-.347.209-.465.358-.119.149-.18.343-.18.582 0 .263.093.481.278.653.186.173.42.316.707.43.286.113.608.209.967.287l1.074.242c.382.084.755.185 1.119.304.365.119.687.278.968.475.279.197.506.445.679.743.174.299.261.668.261 1.11 0 .561-.116 1.026-.349 1.396-.234.37-.537.668-.913.896s-.801.385-1.271.474c-.473.09-.94.135-1.406.135-.513 0-1.003-.054-1.469-.161-.465-.107-.877-.284-1.235-.528-.357-.245-.645-.567-.859-.967-.215-.399-.334-.886-.358-1.459h1.522c.011.335.088.618.231.85zm9.311-10.716v4.888h.036c.118-.287.286-.528.501-.725.215-.197.456-.358.726-.483.268-.125.549-.217.842-.278.292-.059.576-.089.85-.089.609 0 1.117.084 1.522.25.405.168.734.4.984.699.251.298.427.653.529 1.065.101.412.151.869.151 1.37v6.088h-1.521v-6.267c0-.573-.168-1.026-.502-1.361-.334-.333-.794-.501-1.379-.501-.465 0-.867.072-1.209.215-.339.144-.622.346-.85.609-.227.262-.397.57-.51.922-.114.352-.171.737-.171 1.155v5.229h-1.522v-12.785h1.523z" fill="#fff"/><path d="M287.796 354.382c-.264 3.321 2.071 3.679 2.071 3.679-.681 1.16.351 4.401 3.156 3.8 2.378 7.105 13.457-1.84 17.86 4.493 1.74-20.486-14.64-6.353-23.087-11.972zm34.413-68.524c-50.469 0-91.381 40.913-91.381 91.38 0 50.469 40.912 91.38 91.381 91.38 50.471 0 91.38-40.911 91.38-91.38 0-50.467-40.909-91.38-91.38-91.38zm-25.776 127.059s7.321-19.237 12.834-33.699c5.782-19.03-18.711-2.247-21.2-13.883-2.786.477-6.179-3.321-5.345-6.817 0 0-3.858-1.302-2.104-12.092 11.153 12.486 33.702-9.935 35.873 13.888 2.686-7.068 3.199-8.381 3.568-9.355 1.973-5.037 7.659-11.216 19.194-8.938 1.559.306 3.612.784 6.156 1.805l-4.938 13.672c-3.799-2.683-8.552-1.429-10.047 1.762-1.105 2.373-20.229 53.658-20.229 53.658h-13.762zm45.383.025l-3.997-9.877h-20.116l4.281-11.481h11.384l-5.904-14.939 6.133-16.596 20.895 52.894h-12.676z" fill="#DADADA"/><path d="M153.864 88.451v3.008h-7.862v3.76h6.813v2.78h-6.813v6.723h-3.578v-16.271h11.44zm4.808 4.489v2.188h.045c.151-.365.356-.702.615-1.014.258-.312.554-.578.889-.798.333-.22.691-.391 1.071-.512s.775-.183 1.185-.183c.213 0 .448.038.707.114v3.008c-.153-.03-.334-.057-.547-.08s-.418-.034-.615-.034c-.593 0-1.094.099-1.505.296-.41.198-.74.467-.991.809s-.43.741-.536 1.196c-.107.456-.16.95-.16 1.482v5.31h-3.236v-11.782h3.078zm5.879-1.823v-2.667h3.236v2.667h-3.236zm3.236 1.823v11.782h-3.236v-11.782h3.236zm6.016 8.956c.486.471 1.185.706 2.097.706.652 0 1.215-.163 1.686-.49.471-.326.76-.672.866-1.036h2.849c-.456 1.412-1.155 2.423-2.097 3.03-.942.608-2.082.912-3.418.912-.927 0-1.763-.147-2.507-.444-.745-.296-1.375-.718-1.891-1.265-.517-.547-.916-1.2-1.197-1.96-.281-.759-.421-1.595-.421-2.507 0-.881.145-1.701.433-2.461.289-.759.699-1.417 1.23-1.971s1.166-.992 1.903-1.311c.736-.319 1.553-.479 2.45-.479 1.002 0 1.876.194 2.621.582.744.387 1.355.908 1.834 1.561.479.653.824 1.398 1.037 2.234.212.835.288 1.709.228 2.62h-8.5c.045 1.049.31 1.809.797 2.279zm3.657-6.198c-.387-.426-.976-.638-1.766-.638-.516 0-.946.088-1.288.262-.342.175-.615.392-.82.649-.205.258-.35.532-.433.82-.083.289-.133.547-.147.775h5.264c-.153-.82-.422-1.442-.81-1.868zm9.036-2.758v1.641h.068c.41-.683.942-1.181 1.596-1.492.653-.312 1.321-.467 2.005-.467.866 0 1.576.118 2.131.353.554.236.991.562 1.31.98.319.418.543.927.672 1.526.129.601.193 1.265.193 1.994v7.247h-3.236v-6.654c0-.972-.152-1.698-.456-2.177-.304-.479-.843-.718-1.618-.718-.881 0-1.519.262-1.914.786-.396.524-.593 1.387-.593 2.587v6.176h-3.236v-11.782h3.078zm18.8 10.278c-.38.638-.877 1.098-1.493 1.378-.615.281-1.31.421-2.085.421-.881 0-1.656-.17-2.324-.512-.668-.342-1.219-.806-1.652-1.39-.433-.585-.76-1.257-.98-2.017-.22-.76-.33-1.55-.33-2.37 0-.79.11-1.553.33-2.29s.547-1.386.98-1.948c.433-.562.976-1.015 1.629-1.356.653-.341 1.413-.513 2.279-.513.698 0 1.364.148 1.994.444.63.296 1.127.733 1.492 1.311h.046v-5.925h3.236v16.271h-3.076v-1.504h-.046zm-.136-5.822c-.091-.448-.247-.843-.467-1.185-.22-.343-.505-.619-.854-.832-.349-.213-.791-.319-1.321-.319-.533 0-.98.106-1.345.319-.365.213-.657.494-.877.843-.22.35-.38.749-.479 1.197-.099.448-.148.915-.148 1.401 0 .456.053.912.16 1.367.106.456.277.863.513 1.219.235.357.532.646.889.866.356.22.786.33 1.288.33.531 0 .976-.106 1.333-.319s.642-.498.854-.854c.213-.357.365-.764.456-1.219.091-.456.137-.926.137-1.413-.003-.486-.048-.954-.139-1.401zm9.024-8.945v16.271h-3.236v-16.271h3.236zm6.905 19.781c-.624.41-1.49.615-2.598.615-.334 0-.665-.011-.992-.034l-.991-.08v-2.666l.934.091c.32.03.639.038.958.022.425-.045.74-.213.946-.501.205-.289.308-.608.308-.957 0-.259-.046-.501-.137-.729l-4.125-11.053h3.441l2.667 8.067h.045l2.575-8.067h3.35l-4.922 13.24c-.35.958-.837 1.642-1.459 2.052zm-62.129 5.192v4.781h.036c.251-.513.645-.886 1.182-1.119s1.128-.349 1.772-.349c.716 0 1.34.132 1.871.394.531.263.973.618 1.325 1.065.352.447.618.964.797 1.549.179.585.269 1.206.269 1.862s-.087 1.277-.26 1.862c-.173.585-.436 1.096-.788 1.531-.353.436-.794.779-1.325 1.029-.531.251-1.149.376-1.854.376-.227 0-.481-.024-.761-.071-.281-.048-.558-.125-.833-.233-.275-.107-.534-.254-.779-.438-.245-.186-.451-.415-.618-.689h-.036v1.235h-1.522v-12.785h1.524zm5.471 6.813c-.114-.412-.287-.779-.519-1.101-.233-.322-.532-.579-.896-.77-.365-.19-.791-.287-1.28-.287-.514 0-.949.102-1.307.305s-.65.469-.877.797c-.227.329-.391.701-.492 1.119-.102.417-.152.841-.152 1.271 0 .454.054.893.161 1.316s.277.796.51 1.119c.233.323.534.582.904.779.37.197.818.295 1.343.295s.964-.102 1.316-.305c.352-.203.636-.472.851-.806s.37-.716.465-1.146.143-.872.143-1.325c0-.429-.057-.849-.17-1.261zm9.803 5.971v-1.468h-.037c-.322.573-.733.994-1.235 1.262-.502.269-1.092.403-1.773.403-.608 0-1.116-.081-1.522-.242-.405-.161-.733-.391-.985-.689-.25-.298-.426-.653-.527-1.065-.102-.412-.152-.869-.152-1.37v-6.088h1.522v6.267c0 .573.167 1.026.501 1.361.333.334.793.501 1.378.501.466 0 .869-.072 1.209-.215.34-.144.624-.347.851-.609.226-.263.396-.57.51-.922.113-.352.169-.737.169-1.155v-5.229h1.522v9.257h-1.431zm7.681-9.257v1.343h-1.844v5.748c0 .179.015.322.045.43.03.107.086.191.17.25.083.06.2.099.349.117.149.018.343.027.582.027h.698v1.343h-1.164c-.394 0-.731-.027-1.012-.081-.281-.054-.507-.152-.681-.295s-.301-.347-.385-.609c-.084-.263-.125-.609-.125-1.039v-5.891h-1.576v-1.343h1.576v-2.775h1.522v2.775h1.845zm8.094 0v1.468h.036c.632-1.122 1.635-1.683 3.008-1.683.609 0 1.116.084 1.522.25.405.168.733.4.985.699.25.298.426.653.527 1.065.102.412.152.869.152 1.37v6.088h-1.522v-6.267c0-.573-.167-1.026-.501-1.361-.334-.333-.793-.501-1.378-.501-.466 0-.869.072-1.209.215-.34.144-.624.346-.85.609-.227.263-.397.57-.511.922-.114.352-.17.737-.17 1.155v5.229h-1.522v-9.257h1.433zm8.307 2.731c.191-.591.478-1.104.859-1.54s.854-.779 1.415-1.03c.562-.25 1.206-.376 1.934-.376.74 0 1.388.125 1.942.376.555.25 1.024.594 1.406 1.03s.668.949.859 1.54c.191.591.287 1.227.287 1.907 0 .68-.095 1.313-.287 1.898-.191.584-.478 1.096-.859 1.531-.382.436-.851.776-1.406 1.021-.555.244-1.203.367-1.942.367-.729 0-1.373-.123-1.934-.367-.561-.245-1.033-.585-1.415-1.021-.382-.435-.668-.946-.859-1.531-.191-.585-.287-1.218-.287-1.898.001-.681.096-1.316.287-1.907zm1.549 3.402c.149.436.355.799.618 1.092.263.292.57.516.922.671.352.155.725.233 1.119.233s.767-.078 1.119-.233c.352-.155.659-.379.922-.671.263-.293.469-.657.618-1.092s.224-.934.224-1.495-.075-1.06-.224-1.495-.355-.803-.618-1.101c-.263-.299-.57-.525-.922-.681-.353-.155-.726-.233-1.119-.233-.394 0-.767.078-1.119.233-.353.155-.66.382-.922.681-.262.298-.469.666-.618 1.101-.149.436-.224.934-.224 1.495s.075 1.059.224 1.495zm12.901-6.133v1.343h-1.844v5.748c0 .179.015.322.045.43.029.107.086.191.17.25.083.06.2.099.349.117.149.018.343.027.582.027h.698v1.343h-1.163c-.394 0-.732-.027-1.012-.081-.281-.054-.508-.152-.681-.295-.173-.143-.302-.347-.385-.609-.084-.263-.125-.609-.125-1.039v-5.891h-1.576v-1.343h1.576v-2.775h1.522v2.775h1.844zm-76.661 30.744v-1.468h-.037c-.322.573-.733.994-1.235 1.262-.502.269-1.092.403-1.773.403-.608 0-1.116-.081-1.522-.242-.405-.161-.733-.391-.985-.689-.25-.298-.426-.653-.527-1.065-.102-.412-.152-.869-.152-1.37v-6.088h1.522v6.267c0 .573.167 1.026.501 1.361.333.334.793.501 1.378.501.466 0 .869-.072 1.209-.215.34-.144.624-.346.851-.609.226-.262.396-.57.51-.922.113-.352.169-.736.169-1.155v-5.229h1.522v9.257h-1.431zm5.157-9.257v1.468h.036c.632-1.122 1.635-1.683 3.008-1.683.609 0 1.116.084 1.522.25.406.168.734.4.985.699.25.298.426.653.528 1.064.101.412.152.869.152 1.37v6.088h-1.522v-6.267c0-.572-.167-1.026-.501-1.361-.334-.333-.793-.501-1.378-.501-.466 0-.869.072-1.209.215-.34.144-.624.347-.85.609-.227.263-.397.57-.511.922s-.17.737-.17 1.155v5.229h-1.522v-9.257h1.432zm10.098 0v1.253h.036c.251-.513.645-.886 1.182-1.119s1.128-.349 1.772-.349c.716 0 1.34.132 1.871.395.531.262.973.617 1.325 1.065.352.447.618.964.797 1.548.179.585.269 1.206.269 1.862 0 .657-.086 1.277-.26 1.862-.173.585-.436 1.096-.787 1.531-.353.436-.794.779-1.326 1.029-.531.251-1.149.376-1.854.376-.227 0-.48-.023-.76-.071-.281-.048-.558-.125-.833-.233-.275-.107-.535-.254-.779-.438-.245-.185-.451-.415-.618-.689h-.036v4.763h-1.522v-12.785h1.523zm5.47 3.286c-.113-.412-.287-.779-.519-1.101-.233-.322-.532-.579-.896-.77-.365-.19-.791-.287-1.28-.287-.514 0-.95.102-1.307.305-.358.203-.651.469-.877.797-.227.329-.391.701-.492 1.119-.102.418-.152.841-.152 1.271 0 .454.054.893.161 1.316.107.424.277.796.51 1.119.233.323.534.582.904.779.37.197.817.295 1.342.295.526 0 .964-.101 1.317-.305.352-.203.636-.471.851-.806.215-.333.37-.716.465-1.146.096-.43.143-.871.143-1.325 0-.429-.056-.849-.17-1.261zm4.951-3.286v1.952h.036c.37-.752.824-1.307 1.361-1.665.537-.359 1.218-.525 2.041-.502v1.611c-.608 0-1.128.084-1.558.251-.43.167-.776.412-1.039.734-.262.322-.454.714-.573 1.173-.119.46-.179.988-.179 1.585v4.118h-1.522v-9.257h1.433zm4.047 2.73c.19-.591.478-1.104.859-1.539.382-.436.853-.78 1.415-1.03.561-.25 1.206-.376 1.934-.376.74 0 1.388.126 1.942.376.556.25 1.024.594 1.406 1.03.382.436.668.948.859 1.539.191.592.287 1.227.287 1.907 0 .68-.096 1.313-.287 1.898-.19.585-.477 1.096-.859 1.531-.382.437-.851.776-1.406 1.021-.554.245-1.202.367-1.942.367-.729 0-1.373-.122-1.934-.367-.562-.245-1.033-.584-1.415-1.021-.382-.435-.669-.946-.859-1.531-.191-.584-.287-1.218-.287-1.898 0-.68.095-1.315.287-1.907zm1.548 3.403c.149.436.355.8.618 1.092.262.293.57.516.922.671.352.155.725.233 1.119.233s.767-.078 1.119-.233c.352-.155.659-.378.922-.671.262-.292.468-.656.618-1.092.149-.436.224-.934.224-1.495s-.075-1.059-.224-1.495c-.149-.436-.355-.803-.618-1.101-.263-.299-.57-.526-.922-.681-.353-.155-.726-.233-1.119-.233-.394 0-.768.078-1.119.233-.353.155-.66.382-.922.681-.263.298-.469.665-.618 1.101-.15.436-.224.934-.224 1.495.001.561.075 1.059.224 1.495zm8.013-4.79v-1.343h1.558v-1.379c0-.752.218-1.322.654-1.71.436-.387 1.072-.582 1.907-.582.144 0 .308.012.493.037.185.024.349.06.492.107v1.324c-.131-.047-.274-.081-.43-.098l-.43-.027c-.37 0-.656.071-.859.215-.203.143-.305.417-.305.824v1.289h1.791v1.343h-1.791v7.915h-1.522v-7.915h-1.558zm12.784 7.323c-.693.525-1.564.788-2.614.788-.741 0-1.382-.12-1.925-.358-.543-.239-1-.573-1.37-1.003-.37-.43-.648-.942-.833-1.54-.186-.597-.29-1.247-.313-1.952 0-.704.107-1.349.322-1.934.215-.584.516-1.092.904-1.522s.847-.764 1.379-1.003c.531-.238 1.113-.358 1.746-.358.824 0 1.507.17 2.05.51.543.34.979.773 1.307 1.298.328.525.555 1.099.681 1.719.125.621.176 1.212.152 1.773h-6.929c-.012.406.036.791.143 1.155.107.365.281.687.519.967.239.281.543.505.914.671.37.168.806.251 1.307.251.645 0 1.173-.149 1.584-.448.411-.298.683-.752.815-1.361h1.504c-.204 1.04-.651 1.823-1.343 2.347zm-.367-5.944c-.138-.322-.322-.6-.555-.833s-.508-.417-.824-.555c-.316-.137-.666-.206-1.047-.206-.394 0-.75.069-1.065.206-.316.138-.588.326-.815.564-.227.239-.406.517-.537.833-.132.317-.209.654-.232 1.012h5.318c-.026-.359-.106-.699-.243-1.021zm4.592 4.467c.143.233.331.418.564.555.232.138.495.236.788.295.293.061.594.09.904.09.239 0 .489-.018.752-.054.263-.036.504-.101.726-.197.22-.095.403-.236.546-.42.143-.185.215-.421.215-.708 0-.394-.149-.692-.448-.896-.298-.203-.671-.367-1.119-.492-.447-.125-.934-.238-1.459-.34-.525-.102-1.012-.244-1.459-.43-.448-.185-.821-.444-1.119-.779-.298-.334-.448-.799-.448-1.396 0-.466.105-.866.313-1.2.209-.334.478-.606.806-.815.329-.208.698-.364 1.11-.465.412-.102.821-.153 1.227-.153.525 0 1.008.045 1.45.134.442.089.833.245 1.173.465.34.222.612.52.815.896s.322.845.358 1.406h-1.522c-.024-.298-.101-.546-.233-.743-.131-.197-.298-.355-.501-.475-.203-.119-.427-.206-.671-.26-.244-.054-.492-.081-.743-.081-.227 0-.457.018-.689.054-.233.036-.445.099-.636.188-.191.09-.346.209-.466.358-.119.149-.179.343-.179.583 0 .262.092.48.277.653.185.173.421.316.708.43.286.114.608.209.966.287l1.074.242c.382.084.755.186 1.119.304.364.12.686.278.967.475.281.197.507.445.681.743.173.299.259.669.259 1.11 0 .562-.116 1.026-.349 1.396-.232.37-.537.669-.913.896-.376.227-.799.385-1.271.474-.471.09-.94.134-1.405.134-.513 0-1.003-.054-1.468-.161-.466-.107-.877-.283-1.236-.528-.358-.245-.645-.567-.859-.967-.215-.399-.334-.886-.358-1.459h1.522c.01.335.088.619.231.851zm8.954 0c.143.233.331.418.564.555.232.138.495.236.788.295.292.061.594.09.904.09.239 0 .489-.018.752-.054.263-.036.504-.101.726-.197.22-.095.403-.236.546-.42.143-.185.215-.421.215-.708 0-.394-.15-.692-.448-.896-.298-.203-.671-.367-1.119-.492-.447-.125-.934-.238-1.459-.34-.525-.102-1.012-.244-1.459-.43-.448-.185-.821-.444-1.119-.779-.299-.334-.448-.799-.448-1.396 0-.466.105-.866.313-1.2.209-.334.478-.606.806-.815.328-.208.698-.364 1.11-.465.412-.102.82-.153 1.227-.153.525 0 1.008.045 1.45.134.442.089.833.245 1.173.465.34.222.611.52.815.896.203.376.322.845.358 1.406h-1.522c-.024-.298-.102-.546-.233-.743-.132-.197-.298-.355-.501-.475-.203-.119-.427-.206-.671-.26-.245-.054-.492-.081-.743-.081-.227 0-.457.018-.689.054-.233.036-.445.099-.636.188-.191.09-.346.209-.466.358-.12.149-.179.343-.179.583 0 .262.092.48.277.653.185.173.421.316.708.43.286.114.608.209.967.287l1.074.242c.382.084.754.186 1.119.304.364.12.686.278.967.475.281.197.507.445.681.743.172.299.259.669.259 1.11 0 .562-.116 1.026-.349 1.396-.232.37-.537.669-.913.896-.376.227-.8.385-1.271.474-.471.09-.94.134-1.405.134-.514 0-1.003-.054-1.468-.161-.466-.107-.877-.283-1.236-.528-.358-.245-.645-.567-.859-.967-.215-.399-.334-.886-.358-1.459h1.522c.008.335.086.619.23.851zm7.878-8.854v-1.862h1.522v1.862h-1.522zm1.522 1.665v9.257h-1.522v-9.257h1.522zm2.149 2.73c.19-.591.477-1.104.859-1.539.382-.436.853-.78 1.415-1.03.561-.25 1.206-.376 1.934-.376.74 0 1.388.126 1.942.376.555.25 1.024.594 1.406 1.03.382.436.669.948.859 1.539.191.592.287 1.227.287 1.907 0 .68-.095 1.313-.287 1.898-.19.585-.477 1.096-.859 1.531-.382.437-.851.776-1.406 1.021-.554.245-1.202.367-1.942.367-.729 0-1.373-.122-1.934-.367-.562-.245-1.033-.584-1.415-1.021-.382-.435-.669-.946-.859-1.531-.191-.584-.287-1.218-.287-1.898 0-.68.095-1.315.287-1.907zm1.549 3.403c.149.436.355.8.618 1.092.262.293.57.516.922.671.352.155.725.233 1.119.233.393 0 .767-.078 1.119-.233.352-.155.659-.378.921-.671.263-.292.469-.656.618-1.092.149-.436.225-.934.225-1.495s-.075-1.059-.225-1.495c-.149-.436-.355-.803-.618-1.101-.262-.299-.57-.526-.921-.681-.353-.155-.726-.233-1.119-.233-.394 0-.768.078-1.119.233-.353.155-.66.382-.922.681-.263.298-.469.665-.618 1.101-.15.436-.224.934-.224 1.495s.074 1.059.224 1.495zm10.376-6.133v1.468h.036c.632-1.122 1.636-1.683 3.008-1.683.609 0 1.116.084 1.522.25.406.168.734.4.985.699.25.298.426.653.528 1.064.101.412.152.869.152 1.37v6.088h-1.522v-6.267c0-.572-.167-1.026-.501-1.361-.334-.333-.793-.501-1.378-.501-.466 0-.869.072-1.209.215-.34.144-.624.347-.85.609-.227.263-.397.57-.511.922s-.17.737-.17 1.155v5.229h-1.522v-9.257h1.432zm15.631 9.454c-.394 0-.707-.11-.94-.331-.232-.221-.349-.582-.349-1.083-.418.501-.904.863-1.46 1.083-.554.221-1.154.331-1.799.331-.418 0-.812-.044-1.182-.134-.371-.089-.695-.238-.976-.447-.281-.208-.501-.477-.663-.806-.161-.328-.242-.725-.242-1.19 0-.525.09-.955.269-1.29.179-.333.415-.605.708-.814.292-.208.626-.367 1.002-.475s.761-.197 1.155-.269c.417-.083.814-.146 1.19-.188.375-.042.708-.101.993-.179.287-.077.514-.19.681-.339.167-.15.25-.368.25-.654 0-.334-.062-.603-.188-.806-.125-.203-.286-.358-.483-.466-.197-.107-.418-.179-.663-.215-.244-.036-.486-.054-.725-.054-.645 0-1.182.123-1.611.367-.43.245-.663.708-.698 1.388h-1.522c.023-.572.143-1.057.358-1.45.215-.394.501-.713.859-.958.358-.244.77-.421 1.236-.528.465-.107.955-.161 1.468-.161.417 0 .833.03 1.244.089.412.061.784.183 1.119.367.334.186.603.445.806.779.202.334.305.77.305 1.307v4.763c0 .358.021.621.062.788.041.168.182.251.421.251.131 0 .286-.029.465-.09v1.182c-.261.155-.624.232-1.09.232zm-2.13-4.664c-.311.065-.636.12-.976.161-.34.042-.684.089-1.03.143-.347.054-.657.141-.931.26-.275.12-.499.29-.671.51-.173.221-.259.522-.259.904 0 .25.05.463.152.636.101.173.233.313.394.42s.352.185.573.233c.22.048.444.072.671.072.5 0 .931-.068 1.289-.206.358-.137.65-.31.877-.519.226-.208.394-.436.501-.681.107-.244.161-.475.161-.689v-1.558c-.191.144-.441.249-.751.314zm6.248-8.317v12.784h-1.522v-12.784h1.522zm-195.581 239.517c.196.38.459.688.786.923.326.236.709.409 1.15.524.44.113.896.171 1.368.171.319 0 .661-.025 1.025-.079.365-.054.707-.156 1.026-.309.319-.15.585-.36.798-.626.212-.266.319-.604.319-1.015 0-.44-.141-.798-.422-1.072-.281-.272-.649-.501-1.105-.682-.456-.183-.973-.343-1.55-.479-.577-.137-1.162-.289-1.754-.455-.608-.153-1.201-.338-1.778-.559s-1.094-.505-1.549-.854c-.456-.351-.825-.787-1.106-1.311-.281-.525-.421-1.16-.421-1.904 0-.835.179-1.561.536-2.175.357-.616.824-1.13 1.402-1.539.577-.411 1.23-.714 1.959-.913.729-.196 1.458-.295 2.188-.295.851 0 1.667.095 2.45.284.782.19 1.477.498 2.085.924.607.425 1.089.968 1.446 1.629.357.662.536 1.462.536 2.404h-3.464c-.03-.485-.133-.889-.308-1.208-.174-.319-.407-.569-.695-.752-.289-.183-.62-.312-.991-.387-.373-.076-.779-.115-1.219-.115-.289 0-.578.032-.866.091-.289.062-.55.169-.786.319-.236.153-.43.343-.582.569-.151.229-.228.519-.228.868 0 .317.061.577.183.773.121.198.361.381.718.547.356.167.851.335 1.481.503.63.166 1.455.378 2.473.636.304.062.726.172 1.265.331.539.161 1.075.414 1.606.764.532.351.992.817 1.379 1.401.387.584.581 1.334.581 2.245 0 .745-.145 1.436-.433 2.074-.289.637-.718 1.188-1.288 1.652-.57.463-1.276.824-2.119 1.082s-1.819.387-2.929.387c-.897 0-1.766-.11-2.609-.331-.843-.22-1.588-.564-2.233-1.036-.646-.47-1.159-1.071-1.539-1.799-.38-.73-.562-1.596-.546-2.6h3.463c0 .551.099 1.014.297 1.394zm14.858-7.771v1.596h.045c.426-.607.938-1.078 1.539-1.413.6-.334 1.288-.502 2.062-.502.744 0 1.424.146 2.04.434.615.289 1.082.798 1.401 1.526.35-.516.824-.972 1.424-1.366s1.311-.594 2.131-.594c.623 0 1.2.078 1.732.229.531.153.987.395 1.367.73.38.333.676.771.889 1.311.213.538.319 1.188.319 1.946v7.886h-3.236v-6.677c0-.396-.016-.767-.045-1.117-.03-.35-.114-.652-.25-.91-.137-.26-.338-.465-.604-.616-.266-.152-.626-.228-1.082-.228-.456 0-.824.086-1.105.261-.281.176-.501.402-.661.685-.159.282-.266.601-.319.956-.054.357-.08.72-.08 1.084v6.562h-3.236v-6.608c0-.35-.008-.694-.023-1.038-.016-.341-.08-.655-.193-.945-.114-.287-.304-.52-.57-.695-.266-.175-.657-.261-1.174-.261-.152 0-.353.034-.604.103-.25.068-.494.197-.729.387-.236.19-.437.464-.604.821-.167.357-.25.824-.25 1.4v6.837h-3.236v-11.782h3.052zm17.934 1.732c.334-.502.759-.903 1.276-1.208.516-.304 1.098-.521 1.744-.649.645-.129 1.295-.194 1.948-.194.593 0 1.192.043 1.8.126.607.084 1.162.247 1.664.49.501.243.911.581 1.23 1.014.319.433.479 1.007.479 1.722v6.129c0 .533.03 1.041.09 1.527.061.485.167.851.32 1.094h-3.282c-.061-.183-.11-.368-.148-.559-.038-.189-.065-.383-.08-.581-.517.531-1.125.905-1.823 1.117-.699.212-1.413.319-2.142.319-.563 0-1.087-.07-1.573-.205-.486-.138-.911-.351-1.276-.638-.364-.289-.649-.653-.854-1.095-.206-.44-.309-.966-.309-1.572 0-.669.118-1.219.354-1.651.235-.434.539-.779.912-1.038.372-.258.797-.452 1.276-.581.479-.129.961-.231 1.448-.308.486-.077.964-.136 1.435-.182.471-.045.889-.115 1.253-.207.365-.09.653-.223.866-.396.213-.175.312-.43.296-.765 0-.349-.057-.627-.17-.831-.114-.205-.266-.365-.456-.479-.19-.114-.41-.189-.661-.227-.25-.038-.52-.058-.809-.058-.638 0-1.139.137-1.503.409-.365.274-.578.73-.638 1.368h-3.236c.045-.759.235-1.389.569-1.891zm6.393 4.569c-.206.068-.426.125-.661.17-.236.046-.483.084-.741.116-.258.029-.517.066-.774.112-.243.046-.483.107-.718.183-.236.075-.441.179-.616.308-.174.13-.315.293-.421.49-.107.197-.16.448-.16.752 0 .288.053.531.16.729.106.197.25.354.433.468s.395.194.638.24c.243.046.494.067.752.067.638 0 1.131-.106 1.481-.32.349-.212.607-.467.775-.763.167-.295.27-.596.307-.899.039-.303.057-.548.057-.73v-1.207c-.136.121-.307.216-.512.284zm9.331-6.301v2.188h.046c.151-.365.356-.703.615-1.015.259-.312.555-.577.889-.798.333-.22.691-.391 1.071-.513.38-.121.774-.183 1.185-.183.213 0 .449.039.707.115v3.008c-.152-.029-.334-.057-.547-.08-.213-.021-.418-.034-.615-.034-.593 0-1.094.099-1.504.297-.41.197-.74.468-.991.809s-.43.741-.536 1.196c-.107.455-.16.949-.16 1.48v5.311h-3.236v-11.782h3.076zm12.26 0v2.165h-2.37v5.835c0 .547.091.91.273 1.093.183.183.547.274 1.094.274.182 0 .356-.009.524-.023.167-.015.326-.037.478-.068v2.507c-.273.046-.578.076-.911.092-.334.015-.661.022-.98.022-.502 0-.977-.035-1.425-.103-.448-.069-.843-.201-1.185-.399-.342-.196-.611-.479-.809-.844-.197-.363-.296-.843-.296-1.435v-6.951h-1.959v-2.165h1.959v-3.531h3.236v3.531h2.371zm-60.682 20.484v4.78h.036c.251-.514.646-.887 1.182-1.119.537-.232 1.128-.349 1.772-.349.716 0 1.34.132 1.871.394.531.263.973.617 1.325 1.065.352.447.618.964.797 1.55.179.584.269 1.206.269 1.861 0 .657-.086 1.277-.26 1.862s-.436 1.095-.788 1.531c-.353.436-.794.779-1.325 1.029-.531.251-1.149.376-1.854.376-.227 0-.48-.024-.761-.071-.28-.049-.558-.125-.833-.232s-.534-.255-.778-.439c-.245-.185-.451-.415-.619-.688h-.036v1.235h-1.522v-12.785h1.524zm5.471 6.813c-.113-.411-.287-.778-.519-1.101-.233-.322-.532-.579-.896-.771-.364-.191-.791-.286-1.28-.286-.514 0-.949.102-1.307.305-.358.202-.65.469-.877.797-.227.328-.391.701-.492 1.119-.102.417-.152.842-.152 1.271 0 .454.054.892.161 1.315.107.425.277.797.51 1.119.233.323.535.581.904.779.37.196.818.296 1.343.296.526 0 .964-.103 1.316-.307.352-.201.636-.47.851-.806.215-.333.37-.715.465-1.145s.143-.872.143-1.325c0-.427-.057-.848-.17-1.26zm9.803 5.972v-1.469h-.036c-.322.571-.734.993-1.235 1.262s-1.092.403-1.773.403c-.608 0-1.116-.081-1.522-.242-.406-.161-.734-.391-.985-.69-.25-.298-.426-.652-.528-1.063-.102-.413-.152-.869-.152-1.37v-6.088h1.522v6.267c0 .573.167 1.026.501 1.361.333.334.793.502 1.378.502.466 0 .869-.072 1.209-.215.34-.146.624-.347.851-.609.226-.264.396-.569.51-.923.113-.352.17-.737.17-1.154v-5.229h1.522v9.258h-1.432zm7.681-9.258v1.343h-1.844v5.748c0 .18.015.322.045.43.029.107.086.19.169.249.083.061.2.1.349.118.149.017.343.027.582.027h.698v1.343h-1.162c-.395 0-.732-.027-1.012-.081-.281-.054-.508-.152-.681-.295-.173-.144-.301-.347-.384-.609-.084-.264-.126-.61-.126-1.04v-5.89h-1.575v-1.343h1.575v-2.775h1.522v2.775h1.844zm8.094 0v1.468h.036c.632-1.121 1.635-1.683 3.008-1.683.609 0 1.116.084 1.522.251.405.166.734.4.985.698.25.298.426.652.528 1.064.101.412.152.869.152 1.371v6.088h-1.522v-6.268c0-.572-.167-1.026-.501-1.361-.334-.333-.793-.501-1.378-.501-.466 0-.869.071-1.209.215-.34.144-.624.346-.85.608-.227.263-.397.57-.511.923s-.17.736-.17 1.155v5.229h-1.522v-9.258h1.432zm8.308 2.73c.19-.591.477-1.104.859-1.539.382-.435.853-.778 1.415-1.029.561-.251 1.206-.376 1.934-.376.74 0 1.388.125 1.942.376.555.251 1.024.595 1.406 1.029.382.436.669.948.859 1.539.191.592.287 1.228.287 1.908s-.095 1.312-.287 1.896c-.19.586-.477 1.096-.859 1.531-.382.438-.851.776-1.406 1.021-.554.244-1.202.367-1.942.367-.729 0-1.373-.123-1.934-.367-.562-.245-1.033-.584-1.415-1.021-.382-.436-.669-.945-.859-1.531-.191-.584-.287-1.216-.287-1.896s.095-1.316.287-1.908zm1.549 3.402c.149.437.355.8.618 1.093.262.293.57.516.922.672.352.155.725.233 1.119.233.393 0 .767-.078 1.119-.233.352-.156.659-.379.921-.672.263-.293.469-.656.618-1.093.149-.435.224-.934.224-1.494 0-.562-.075-1.06-.224-1.495s-.355-.803-.618-1.101c-.262-.3-.57-.526-.921-.682-.353-.155-.726-.232-1.119-.232-.394 0-.768.077-1.119.232-.353.155-.66.382-.922.682-.263.298-.469.665-.618 1.101-.15.436-.224.934-.224 1.495s.074 1.06.224 1.494zm12.9-6.132v1.343h-1.844v5.748c0 .18.015.322.045.43.03.107.086.19.17.249.083.061.2.1.349.118.149.017.343.027.582.027h.698v1.343h-1.164c-.394 0-.732-.027-1.012-.081-.281-.054-.507-.152-.681-.295-.173-.144-.301-.347-.385-.609-.084-.264-.125-.61-.125-1.04v-5.89h-1.576v-1.343h1.576v-2.775h1.522v2.775h1.845zm-50.744 30.941c-.393 0-.707-.11-.94-.331-.233-.221-.349-.582-.349-1.083-.418.501-.904.862-1.459 1.083-.554.221-1.154.331-1.799.331-.418 0-.812-.044-1.182-.134-.371-.09-.696-.238-.976-.447-.281-.21-.501-.479-.663-.806-.161-.328-.242-.725-.242-1.191 0-.524.09-.954.269-1.29.179-.333.415-.604.708-.813.292-.21.626-.368 1.002-.476s.761-.196 1.155-.269c.417-.083.814-.145 1.19-.188.375-.041.708-.101.993-.179.287-.077.514-.19.681-.34.167-.15.25-.368.25-.654 0-.334-.062-.603-.188-.806-.125-.202-.286-.358-.483-.466-.196-.107-.417-.179-.663-.215-.244-.034-.486-.054-.725-.054-.645 0-1.182.124-1.611.368s-.663.706-.698 1.387h-1.522c.023-.573.143-1.057.358-1.45s.501-.713.859-.957.77-.422 1.236-.529c.465-.107.955-.16 1.468-.16.417 0 .833.029 1.244.088.413.062.785.183 1.119.368.334.186.603.445.806.778.203.335.305.771.305 1.309v4.762c0 .358.021.622.062.788.042.167.182.25.421.25.131 0 .287-.029.465-.089v1.182c-.261.157-.625.233-1.091.233zm-2.129-4.663c-.311.064-.636.118-.976.161-.34.04-.684.089-1.03.143-.347.054-.657.14-.932.261-.274.118-.498.288-.671.51-.173.221-.259.521-.259.903 0 .252.05.464.152.636.101.173.233.313.394.421s.352.186.573.232c.22.047.444.071.671.071.5 0 .931-.067 1.289-.205.357-.137.65-.311.877-.52.226-.208.394-.436.501-.68s.161-.476.161-.69v-1.558c-.19.143-.44.247-.75.315zm6.015-4.791v1.953h.036c.37-.752.824-1.309 1.361-1.665.537-.36 1.218-.526 2.041-.502v1.61c-.608 0-1.128.084-1.558.251-.43.168-.776.413-1.039.735s-.454.713-.573 1.172c-.119.46-.179.988-.179 1.586v4.116h-1.522v-9.257h1.433zm5.963 0v1.953h.036c.37-.752.824-1.309 1.361-1.665.537-.36 1.218-.526 2.041-.502v1.61c-.608 0-1.127.084-1.557.251-.43.168-.776.413-1.039.735-.263.322-.454.713-.573 1.172-.12.46-.179.988-.179 1.586v4.116h-1.522v-9.257h1.432zm4.045 2.731c.191-.591.478-1.104.859-1.54.382-.437.854-.78 1.415-1.03.562-.249 1.206-.375 1.934-.375.74 0 1.388.126 1.942.375.555.25 1.024.594 1.406 1.03s.668.949.859 1.54c.191.591.287 1.226.287 1.906 0 .68-.095 1.313-.287 1.898-.191.585-.478 1.096-.859 1.531-.382.435-.851.776-1.406 1.021-.555.244-1.202.366-1.942.366-.728 0-1.373-.122-1.934-.366-.561-.244-1.032-.586-1.415-1.021-.382-.436-.668-.946-.859-1.531s-.287-1.219-.287-1.898c.001-.68.097-1.315.287-1.906zm1.549 3.403c.149.436.355.799.618 1.092.263.293.57.517.922.671s.725.232 1.119.232.767-.078 1.119-.232.66-.378.922-.671c.263-.293.469-.656.618-1.092.149-.437.224-.935.224-1.496 0-.561-.075-1.059-.224-1.495-.149-.436-.355-.803-.618-1.102-.262-.298-.57-.524-.922-.679-.352-.156-.726-.234-1.119-.234-.394 0-.767.078-1.119.234-.352.154-.66.381-.922.679-.262.299-.468.666-.618 1.102-.149.437-.223.935-.223 1.495 0 .561.074 1.059.223 1.496zm15.891 5.738c-.692.752-1.778 1.128-3.258 1.128-.43 0-.868-.048-1.316-.144-.448-.095-.854-.251-1.218-.466s-.666-.495-.904-.841c-.239-.346-.37-.771-.394-1.272h1.522c.011.275.098.508.259.698.161.192.358.347.591.467.232.118.486.206.761.26.274.054.537.08.788.08.501 0 .924-.087 1.271-.259.346-.175.632-.414.859-.717.227-.304.392-.672.493-1.102.101-.43.152-.902.152-1.415v-.608h-.036c-.263.573-.66.994-1.19 1.263-.532.269-1.096.402-1.692.402-.692 0-1.295-.125-1.809-.376s-.943-.587-1.289-1.011c-.347-.425-.606-.92-.779-1.486-.173-.568-.26-1.167-.26-1.801 0-.548.072-1.111.215-1.691.144-.577.382-1.104.716-1.575s.776-.86 1.325-1.164c.548-.304 1.223-.456 2.023-.456.584 0 1.122.129 1.611.384.489.258.871.642 1.146 1.155h.018v-1.325h1.432v8.47c.001 1.514-.345 2.65-1.037 3.402zm-1.942-4.163c.352-.208.635-.483.85-.823.215-.341.374-.725.475-1.154.101-.43.152-.859.152-1.291 0-.405-.048-.806-.143-1.199-.096-.395-.249-.749-.458-1.065-.208-.315-.48-.569-.814-.76-.334-.191-.741-.288-1.218-.288-.49 0-.907.093-1.253.278-.347.186-.63.433-.851.742-.221.312-.382.669-.483 1.074-.102.407-.152.83-.152 1.271 0 .418.042.837.125 1.253.083.419.227.798.43 1.139.203.34.472.615.806.823.333.208.752.312 1.253.312.502 0 .928-.104 1.281-.312zm12.381 1.745c-.394 0-.707-.11-.94-.331s-.349-.582-.349-1.083c-.418.501-.904.862-1.459 1.083-.555.221-1.155.331-1.799.331-.418 0-.812-.044-1.182-.134s-.695-.238-.976-.447c-.28-.21-.501-.479-.663-.806-.161-.328-.242-.725-.242-1.191 0-.524.09-.954.269-1.29.179-.333.415-.604.708-.813.292-.21.626-.368 1.002-.476s.761-.196 1.155-.269c.418-.083.814-.145 1.19-.188.376-.041.708-.101.994-.179.287-.077.514-.19.681-.34.167-.15.25-.368.25-.654 0-.334-.062-.603-.188-.806-.125-.202-.286-.358-.483-.466-.197-.107-.417-.179-.663-.215-.244-.034-.486-.054-.725-.054-.645 0-1.182.124-1.611.368s-.663.706-.698 1.387h-1.521c.023-.573.143-1.057.357-1.45.215-.393.501-.713.859-.957s.77-.422 1.236-.529c.465-.107.955-.16 1.468-.16.418 0 .833.029 1.244.088.412.062.785.183 1.119.368s.603.445.806.778c.203.335.305.771.305 1.309v4.762c0 .358.021.622.062.788.042.167.182.25.421.25.131 0 .287-.029.465-.089v1.182c-.263.157-.626.233-1.092.233zm-2.131-4.663c-.311.064-.636.118-.976.161-.34.04-.683.089-1.03.143-.346.054-.657.14-.931.261-.274.118-.498.288-.671.51-.173.221-.259.521-.259.903 0 .252.051.464.152.636.102.173.233.313.394.421s.352.186.573.232c.22.047.445.071.671.071.501 0 .931-.067 1.289-.205.358-.137.651-.311.877-.52.227-.208.394-.436.501-.68s.161-.476.161-.69v-1.558c-.19.143-.44.247-.751.315zm6.07-4.791v1.47h.036c.632-1.123 1.635-1.684 3.008-1.684.609 0 1.116.083 1.522.249.405.169.733.4.985.7.25.298.426.653.527 1.064.102.412.152.868.152 1.369v6.088h-1.521v-6.267c0-.573-.167-1.026-.502-1.359-.334-.335-.793-.503-1.378-.503-.466 0-.869.073-1.209.215-.34.145-.624.347-.85.61-.227.262-.397.569-.511.921-.114.352-.17.738-.17 1.154v5.229h-1.521v-9.257h1.432zm12.48 0v1.343h-1.844v5.748c0 .179.015.322.045.43.03.107.087.192.17.251.083.06.2.099.349.116.149.019.343.026.582.026h.698v1.343h-1.164c-.394 0-.731-.026-1.012-.08s-.507-.152-.681-.296c-.173-.143-.301-.347-.385-.608s-.125-.608-.125-1.037v-5.893h-1.575v-1.343h1.576v-2.774h1.522v2.774h1.844zm19.861 171.935c.197.38.459.688.786.922.327.236.71.411 1.151.525.44.112.896.171 1.368.171.319 0 .661-.027 1.025-.081.365-.053.707-.154 1.026-.308.319-.151.585-.359.797-.626.212-.266.319-.604.319-1.015 0-.44-.141-.798-.422-1.07-.281-.273-.649-.502-1.105-.685-.456-.182-.973-.341-1.55-.478-.577-.138-1.162-.289-1.754-.456-.608-.151-1.201-.338-1.778-.558-.578-.221-1.094-.506-1.549-.855-.456-.35-.825-.786-1.106-1.311-.281-.523-.421-1.157-.421-1.902 0-.836.178-1.561.536-2.177.357-.615.824-1.128 1.402-1.538.577-.41 1.23-.714 1.959-.911s1.458-.297 2.188-.297c.851 0 1.667.096 2.45.285.782.19 1.477.498 2.085.923.608.426 1.09.969 1.447 1.629.357.661.536 1.463.536 2.405h-3.464c-.03-.486-.133-.889-.308-1.209-.174-.318-.407-.569-.695-.752-.289-.183-.62-.312-.991-.387-.373-.076-.779-.114-1.219-.114-.289 0-.578.031-.866.092s-.55.166-.786.318c-.236.151-.43.342-.582.57-.151.228-.228.516-.228.866 0 .318.061.577.183.774.121.197.361.38.718.547.356.168.851.334 1.481.501.63.168 1.455.38 2.473.639.304.061.726.171 1.265.33s1.075.414 1.606.763c.532.351.992.818 1.379 1.402.388.585.582 1.333.582 2.245 0 .743-.145 1.435-.433 2.073-.289.639-.718 1.189-1.288 1.652-.57.463-1.276.824-2.119 1.082-.843.258-1.819.389-2.929.389-.897 0-1.766-.112-2.609-.332-.843-.219-1.588-.565-2.233-1.037-.646-.47-1.159-1.071-1.539-1.8-.38-.729-.562-1.596-.546-2.597h3.463c-.002.55.097 1.013.295 1.393zm18.185-7.771v2.165h-2.37v5.834c0 .547.091.911.273 1.094.183.183.547.273 1.094.273.182 0 .356-.008.524-.022.167-.015.326-.038.478-.068v2.507c-.273.045-.578.075-.911.091-.334.015-.661.022-.98.022-.501 0-.976-.034-1.424-.103-.448-.067-.843-.2-1.185-.399-.342-.195-.611-.478-.809-.843-.197-.364-.296-.844-.296-1.436v-6.95h-1.959v-2.165h1.959v-3.533h3.236v3.533h2.37zm4.626 0v2.188h.046c.151-.365.356-.704.615-1.016.258-.31.555-.577.889-.797.334-.221.691-.391 1.071-.514.38-.12.775-.181 1.185-.181.213 0 .449.037.707.112v3.01c-.152-.031-.334-.059-.547-.081s-.418-.033-.615-.033c-.593 0-1.094.099-1.504.297-.41.197-.741.467-.991.808-.251.343-.43.741-.536 1.196-.106.457-.16.949-.16 1.481v5.311h-3.236v-11.782h3.076zm6.22 1.731c.333-.5.759-.903 1.276-1.207.516-.305 1.098-.521 1.743-.649s1.295-.193 1.948-.193c.593 0 1.192.042 1.801.125.607.083 1.162.247 1.664.49.501.242.911.581 1.23 1.014.319.434.479 1.007.479 1.721v6.13c0 .531.03 1.04.091 1.526.061.487.167.852.319 1.095h-3.282c-.061-.183-.11-.368-.148-.559-.038-.189-.065-.383-.08-.582-.517.533-1.125.905-1.823 1.117s-1.413.319-2.142.319c-.562 0-1.087-.068-1.573-.205-.486-.137-.911-.349-1.276-.638-.364-.289-.649-.654-.854-1.095-.206-.44-.308-.964-.308-1.572 0-.668.118-1.219.353-1.652.236-.433.539-.777.912-1.036.372-.258.798-.451 1.276-.582.479-.129.961-.23 1.447-.308.486-.075.964-.137 1.436-.183.471-.045.889-.112 1.253-.204.365-.091.653-.224.866-.398.212-.175.312-.43.296-.764 0-.35-.057-.627-.17-.831-.114-.206-.266-.365-.456-.479s-.41-.189-.661-.229c-.25-.038-.521-.057-.809-.057-.638 0-1.139.138-1.504.41-.364.273-.577.73-.638 1.368h-3.236c.046-.76.236-1.389.57-1.892zm6.393 4.57c-.206.068-.426.125-.661.171-.236.046-.483.084-.741.114s-.517.068-.775.114c-.243.045-.482.105-.717.183-.236.076-.441.178-.616.307s-.315.293-.422.49-.16.448-.16.752c0 .289.053.532.16.729s.25.353.433.467.395.193.638.239c.243.046.494.068.753.068.638 0 1.131-.106 1.481-.318.349-.213.607-.467.774-.764.167-.297.27-.597.308-.899.038-.305.057-.548.057-.73v-1.207c-.136.122-.307.215-.512.284zm6.346-8.124v-2.666h3.236v2.666h-3.236zm3.236 1.823v11.782h-3.236v-11.782h3.236zm13.685 12.647c-.129.607-.407 1.174-.832 1.697-.426.525-1.041.97-1.846 1.334-.806.365-1.884.547-3.237.547-.577 0-1.166-.072-1.766-.217-.601-.144-1.147-.368-1.641-.672-.494-.305-.904-.695-1.23-1.173-.327-.479-.513-1.053-.559-1.722h3.213c.152.608.448 1.03.889 1.265.44.235.949.354 1.526.354.912 0 1.577-.272 1.995-.82.417-.547.618-1.238.604-2.073v-1.55h-.045c-.35.623-.847 1.082-1.493 1.378-.646.297-1.326.444-2.04.444-.881 0-1.641-.154-2.279-.468-.638-.31-1.162-.735-1.572-1.275-.411-.538-.71-1.169-.9-1.892-.19-.721-.285-1.485-.285-2.289 0-.76.11-1.493.33-2.199s.543-1.329.969-1.869.954-.968 1.584-1.288c.63-.319 1.356-.478 2.176-.478.775 0 1.454.144 2.04.433.585.288 1.075.774 1.47 1.458h.045v-1.572h3.077v11.03c0 .471-.065 1.01-.193 1.617zm-4.433-3.919c.349-.183.638-.426.866-.729.228-.305.398-.649.513-1.037.113-.387.17-.794.17-1.22 0-.485-.045-.945-.137-1.379-.091-.433-.243-.816-.455-1.15-.214-.333-.494-.601-.843-.798-.35-.197-.791-.295-1.322-.295-.456 0-.848.091-1.174.272-.327.183-.601.43-.82.741-.221.312-.38.668-.479 1.071-.1.402-.148.824-.148 1.265 0 .426.042.848.125 1.265.083.418.228.794.433 1.128.205.335.475.607.809.82s.752.318 1.254.318c.456.001.859-.09 1.208-.272zm10.46-13.217v6.13h.068c.41-.684.935-1.181 1.572-1.492.639-.312 1.261-.467 1.869-.467.866 0 1.576.116 2.131.353.554.235.991.562 1.31.979.32.419.543.928.673 1.527.129.601.193 1.266.193 1.994v7.247h-3.236v-6.654c0-.973-.152-1.697-.456-2.177-.304-.479-.843-.717-1.618-.717-.881 0-1.52.262-1.914.785-.396.523-.593 1.387-.593 2.586v6.177h-3.236v-16.271h3.237zm16.749 4.489v2.165h-2.37v5.834c0 .547.091.911.273 1.094.183.183.547.273 1.094.273.182 0 .356-.008.524-.022.167-.015.326-.038.478-.068v2.507c-.273.045-.578.075-.911.091-.334.015-.661.022-.98.022-.502 0-.977-.034-1.425-.103-.448-.067-.843-.2-1.185-.399-.342-.195-.611-.478-.809-.843-.197-.364-.296-.844-.296-1.436v-6.95h-1.959v-2.165h1.959v-3.533h3.236v3.533h2.371zm14.357 0v2.165h-2.37v5.834c0 .547.091.911.273 1.094.183.183.547.273 1.094.273.182 0 .356-.008.524-.022.167-.015.326-.038.478-.068v2.507c-.273.045-.577.075-.911.091-.334.015-.661.022-.98.022-.501 0-.976-.034-1.425-.103-.448-.067-.843-.2-1.185-.399-.342-.195-.612-.478-.809-.843-.197-.364-.296-.844-.296-1.436v-6.95h-1.96v-2.165h1.96v-3.533h3.236v3.533h2.371zm1.982 1.731c.333-.5.759-.903 1.276-1.207.516-.305 1.098-.521 1.744-.649.645-.129 1.295-.193 1.948-.193.593 0 1.192.042 1.8.125.607.083 1.162.247 1.664.49.501.242.911.581 1.23 1.014.319.434.479 1.007.479 1.721v6.13c0 .531.03 1.04.09 1.526.061.487.167.852.32 1.095h-3.282c-.061-.183-.11-.368-.148-.559-.038-.189-.065-.383-.08-.582-.517.533-1.125.905-1.824 1.117-.699.212-1.412.319-2.142.319-.562 0-1.087-.068-1.573-.205s-.911-.349-1.276-.638c-.364-.289-.649-.654-.854-1.095s-.308-.964-.308-1.572c0-.668.118-1.219.353-1.652.236-.433.54-.777.912-1.036.372-.258.797-.451 1.276-.582.479-.129.961-.23 1.448-.308.486-.075.964-.137 1.435-.183.471-.045.889-.112 1.253-.204.365-.091.653-.224.866-.398s.312-.43.296-.764c0-.35-.057-.627-.17-.831-.114-.206-.266-.365-.456-.479s-.41-.189-.661-.229c-.25-.038-.52-.057-.809-.057-.638 0-1.139.138-1.504.41-.364.273-.577.73-.638 1.368h-3.236c.047-.76.237-1.389.571-1.892zm6.393 4.57c-.206.068-.426.125-.661.171-.236.046-.483.084-.741.114s-.517.068-.774.114c-.243.045-.483.105-.718.183-.236.076-.441.178-.616.307s-.315.293-.421.49c-.107.197-.16.448-.16.752 0 .289.053.532.16.729.106.197.25.353.433.467s.395.193.638.239c.243.046.494.068.752.068.638 0 1.131-.106 1.481-.318.349-.213.607-.467.775-.764.167-.297.27-.597.307-.899.039-.305.057-.548.057-.73v-1.207c-.136.122-.308.215-.512.284zm9.582-10.79v16.271h-3.236v-16.271h3.236zm6.085 0v8.728l4.079-4.238h3.827l-4.443 4.33 4.945 7.452h-3.919l-3.237-5.265-1.252 1.208v4.057h-3.237v-16.272h3.237zm9.639 2.666v-2.666h3.236v2.666h-3.236zm3.236 1.823v11.782h-3.236v-11.782h3.236zm5.629 0v1.641h.067c.41-.684.942-1.181 1.597-1.492.652-.312 1.32-.467 2.005-.467.866 0 1.575.116 2.131.353.554.235.991.562 1.31.979.319.419.543.928.673 1.527.129.601.193 1.266.193 1.994v7.247h-3.236v-6.654c0-.973-.151-1.697-.455-2.177-.305-.479-.844-.717-1.618-.717-.882 0-1.52.262-1.914.785-.396.523-.593 1.387-.593 2.586v6.177h-3.236v-11.782h3.076zm21.57 12.647c-.129.607-.407 1.174-.832 1.697-.426.525-1.041.97-1.846 1.334-.806.365-1.885.547-3.236.547-.577 0-1.166-.072-1.766-.217-.602-.144-1.147-.368-1.641-.672-.494-.305-.904-.695-1.231-1.173-.326-.479-.513-1.053-.558-1.722h3.213c.151.608.447 1.03.889 1.265.44.235.949.354 1.526.354.912 0 1.576-.272 1.995-.82.417-.547.618-1.238.604-2.073v-1.55h-.046c-.35.623-.848 1.082-1.492 1.378-.646.297-1.326.444-2.04.444-.882 0-1.641-.154-2.279-.468-.638-.31-1.162-.735-1.572-1.275-.41-.538-.71-1.169-.9-1.892-.189-.721-.284-1.485-.284-2.289 0-.76.11-1.493.33-2.199.221-.706.543-1.329.969-1.869.425-.54.953-.968 1.584-1.288.63-.319 1.355-.478 2.177-.478.774 0 1.454.144 2.039.433.585.288 1.075.774 1.47 1.458h.046v-1.572h3.076v11.03c-.002.471-.067 1.01-.195 1.617zm-4.433-3.919c.349-.183.638-.426.866-.729.228-.305.398-.649.513-1.037.113-.387.171-.794.171-1.22 0-.485-.046-.945-.138-1.379-.09-.433-.242-.816-.455-1.15-.213-.333-.494-.601-.843-.798-.35-.197-.79-.295-1.322-.295-.456 0-.847.091-1.173.272-.327.183-.602.43-.821.741-.221.312-.38.668-.479 1.071-.099.402-.148.824-.148 1.265 0 .426.042.848.126 1.265.083.418.228.794.433 1.128.205.335.475.607.81.82.333.213.752.318 1.253.318.455.001.857-.09 1.207-.272zm-105.21 11.755v4.781h.036c.251-.513.645-.886 1.182-1.118.537-.233 1.128-.351 1.772-.351.716 0 1.34.132 1.871.395.531.264.973.618 1.325 1.065.352.448.618.964.797 1.549.178.586.269 1.206.269 1.862 0 .657-.087 1.277-.26 1.862-.173.585-.436 1.095-.788 1.531-.353.435-.794.778-1.325 1.029-.531.25-1.149.376-1.854.376-.227 0-.481-.023-.761-.072-.281-.047-.558-.125-.833-.232-.275-.107-.534-.254-.779-.438-.245-.185-.451-.415-.618-.689h-.034v1.235h-1.522v-12.785h1.522zm5.471 6.815c-.114-.412-.287-.78-.519-1.103-.233-.322-.532-.578-.896-.77-.365-.19-.791-.285-1.28-.285-.514 0-.949.101-1.307.303-.358.204-.65.469-.877.798-.227.327-.391.701-.492 1.118-.102.419-.152.842-.152 1.271 0 .454.054.894.161 1.316.107.424.277.797.51 1.119s.534.582.904.779.818.295 1.343.295.964-.102 1.316-.305c.352-.202.636-.471.851-.806.215-.334.37-.716.465-1.145.095-.43.143-.872.143-1.326 0-.427-.057-.848-.17-1.259zm9.803 5.97v-1.469h-.037c-.322.573-.734.995-1.235 1.264s-1.092.402-1.773.402c-.608 0-1.116-.08-1.522-.241-.405-.161-.733-.391-.985-.69-.25-.298-.426-.653-.527-1.064-.102-.412-.152-.869-.152-1.37v-6.087h1.522v6.266c0 .573.167 1.027.501 1.36.333.334.793.502 1.378.502.466 0 .869-.071 1.209-.215.341-.144.624-.346.851-.609.227-.262.397-.569.51-.921.114-.352.17-.737.17-1.156v-5.227h1.522v9.256h-1.432zm7.681-9.255v1.343h-1.844v5.746c0 .18.015.322.045.43.03.107.086.192.17.251.083.061.2.099.349.117.149.018.343.026.582.026h.698v1.343h-1.164c-.394 0-.732-.026-1.012-.08-.281-.054-.507-.152-.681-.296s-.301-.346-.385-.608c-.084-.263-.125-.609-.125-1.039v-5.89h-1.576v-1.343h1.576v-2.775h1.522v2.775h1.845zm8.094 0v1.467h.036c.632-1.122 1.635-1.684 3.008-1.684.609 0 1.116.085 1.522.251.405.168.733.4.985.698.25.3.426.654.527 1.066.102.411.152.869.152 1.369v6.088h-1.522v-6.266c0-.574-.167-1.027-.501-1.362-.334-.334-.793-.5-1.378-.5-.466 0-.869.07-1.209.215-.339.142-.624.346-.85.607-.227.264-.397.571-.511.923-.113.352-.169.737-.169 1.154v5.229h-1.522v-9.256h1.432zm8.307 2.729c.191-.591.478-1.104.859-1.54.382-.436.854-.779 1.415-1.028.561-.251 1.206-.378 1.934-.378.74 0 1.388.127 1.942.378.555.249 1.024.593 1.406 1.028.382.437.668.949.859 1.54.191.591.287 1.228.287 1.906 0 .681-.095 1.314-.287 1.898-.191.586-.478 1.096-.859 1.531-.382.437-.851.775-1.406 1.021-.555.244-1.203.367-1.942.367-.729 0-1.373-.123-1.934-.367-.561-.245-1.033-.584-1.415-1.021-.382-.436-.668-.945-.859-1.531-.191-.584-.287-1.218-.287-1.898.001-.678.096-1.315.287-1.906zm1.549 3.402c.149.437.355.8.618 1.092.263.292.57.517.922.671.352.156.725.233 1.119.233s.767-.077 1.119-.233c.352-.154.659-.379.922-.671s.469-.655.618-1.092c.149-.436.224-.935.224-1.496 0-.56-.075-1.058-.224-1.494s-.355-.803-.618-1.101c-.263-.299-.57-.525-.922-.682-.353-.154-.726-.231-1.119-.231-.394 0-.767.077-1.119.231-.353.156-.66.383-.922.682-.262.298-.469.664-.618 1.101-.149.437-.224.935-.224 1.494.001.562.075 1.061.224 1.496zm12.901-6.131v1.343h-1.844v5.746c0 .18.015.322.045.43.029.107.086.192.17.251.083.061.2.099.349.117.149.018.343.026.583.026h.698v1.343h-1.163c-.394 0-.732-.026-1.012-.08-.281-.054-.508-.152-.681-.296-.173-.144-.302-.346-.385-.608-.084-.263-.125-.609-.125-1.039v-5.89h-1.576v-1.343h1.576v-2.775h1.522v2.775h1.843zm-57.619 23.096c-.382-.322-.895-.483-1.54-.483-.549 0-1.009.101-1.379.304-.37.204-.665.473-.886.806-.221.334-.379.719-.475 1.155-.096.436-.143.887-.143 1.351 0 .43.05.849.151 1.255.102.405.26.767.475 1.083.215.315.496.569.842.76.346.192.758.288 1.235.288.752 0 1.34-.198 1.764-.591.424-.396.684-.949.779-1.665h1.558c-.167 1.146-.594 2.028-1.28 2.649s-1.621.932-2.802.932c-.705 0-1.329-.114-1.872-.342-.543-.226-.996-.549-1.361-.967-.364-.417-.638-.915-.823-1.494-.186-.578-.278-1.215-.278-1.908 0-.691.09-1.338.269-1.941.18-.603.451-1.129.815-1.576.364-.447.82-.8 1.369-1.057.549-.256 1.188-.385 1.916-.385.525 0 1.018.062 1.477.188.46.125.865.318 1.218.582.352.263.641.593.868.993s.37.874.43 1.424h-1.576c-.118-.584-.37-1.039-.751-1.361zm3.867 1.118c.19-.591.478-1.104.859-1.54.382-.435.853-.778 1.415-1.028.561-.251 1.206-.377 1.934-.377.74 0 1.388.126 1.942.377.556.25 1.024.594 1.406 1.028.382.437.668.949.859 1.54.191.591.287 1.228.287 1.906 0 .682-.096 1.314-.287 1.899-.19.585-.477 1.096-.859 1.53-.382.437-.851.776-1.406 1.021-.554.244-1.202.368-1.942.368-.729 0-1.373-.124-1.934-.368-.562-.244-1.033-.584-1.415-1.021-.382-.435-.669-.945-.859-1.53-.191-.585-.287-1.218-.287-1.899.001-.678.096-1.315.287-1.906zm1.549 3.403c.149.437.355.801.618 1.092.262.293.57.517.922.671.352.156.725.234 1.119.234s.767-.078 1.119-.234c.352-.154.659-.378.922-.671.262-.291.468-.655.618-1.092.149-.435.224-.935.224-1.496 0-.56-.075-1.058-.224-1.494-.149-.437-.355-.803-.618-1.101-.263-.298-.57-.525-.922-.681-.353-.154-.726-.232-1.119-.232-.394 0-.768.078-1.119.232-.353.155-.66.383-.922.681-.263.298-.469.664-.618 1.101-.15.437-.224.935-.224 1.494 0 .561.074 1.061.224 1.496zm10.323-6.132v1.951h.035c.37-.752.824-1.307 1.361-1.665s1.218-.525 2.041-.502v1.612c-.608 0-1.128.083-1.558.25s-.776.412-1.039.734c-.262.322-.454.713-.573 1.173s-.179.987-.179 1.585v4.118h-1.522v-9.257h1.434zm6.158 0v1.253h.036c.251-.514.645-.887 1.182-1.119.537-.233 1.128-.35 1.772-.35.716 0 1.34.131 1.871.395.531.263.973.617 1.325 1.064.352.448.618.964.797 1.55.178.585.269 1.205.269 1.862 0 .656-.087 1.276-.26 1.862-.173.584-.436 1.094-.788 1.53-.353.436-.794.779-1.325 1.03-.531.249-1.149.376-1.854.376-.227 0-.481-.024-.761-.073-.281-.047-.558-.124-.833-.231-.275-.107-.534-.254-.779-.439-.245-.184-.451-.415-.618-.688h-.036v4.762h-1.522v-12.783h1.524zm5.471 3.285c-.114-.412-.287-.78-.519-1.103-.233-.321-.532-.578-.896-.769-.365-.19-.791-.286-1.28-.286-.514 0-.949.101-1.307.304-.358.204-.65.468-.877.797-.227.328-.391.701-.492 1.119-.102.419-.152.842-.152 1.271 0 .453.054.893.161 1.315.107.424.277.798.51 1.12s.534.581.904.778c.37.197.817.296 1.343.296s.964-.103 1.316-.306c.352-.202.636-.471.851-.805.215-.335.37-.716.465-1.146.095-.43.143-.872.143-1.325 0-.427-.057-.849-.17-1.26zm3.357-.556c.19-.591.477-1.104.859-1.54.382-.435.853-.778 1.414-1.028.562-.251 1.206-.377 1.935-.377.74 0 1.387.126 1.942.377.555.25 1.024.594 1.406 1.028.382.437.669.949.859 1.54.191.591.287 1.228.287 1.906 0 .682-.095 1.314-.287 1.899-.19.585-.478 1.096-.859 1.53-.382.437-.851.776-1.406 1.021-.555.244-1.202.368-1.942.368-.729 0-1.373-.124-1.935-.368-.561-.244-1.032-.584-1.414-1.021-.382-.435-.669-.945-.859-1.53-.191-.585-.287-1.218-.287-1.899 0-.678.096-1.315.287-1.906zm1.549 3.403c.149.437.355.801.617 1.092.263.293.57.517.923.671.352.156.725.234 1.119.234.393 0 .767-.078 1.119-.234.352-.154.659-.378.921-.671.263-.291.469-.655.618-1.092.149-.435.224-.935.224-1.496 0-.56-.075-1.058-.224-1.494s-.355-.803-.618-1.101c-.262-.298-.57-.525-.921-.681-.353-.154-.726-.232-1.119-.232-.395 0-.768.078-1.119.232-.353.155-.66.383-.923.681-.262.298-.468.664-.617 1.101-.15.437-.224.935-.224 1.494 0 .561.074 1.061.224 1.496zm10.322-6.132v1.951h.036c.37-.752.824-1.307 1.361-1.665s1.218-.525 2.041-.502v1.612c-.608 0-1.128.083-1.558.25s-.776.412-1.039.734c-.263.322-.454.713-.573 1.173-.12.46-.179.987-.179 1.585v4.118h-1.522v-9.257h1.433zm11.692 9.454c-.394 0-.707-.111-.94-.332-.233-.22-.349-.581-.349-1.084-.418.503-.904.864-1.459 1.084-.554.221-1.155.332-1.799.332-.418 0-.812-.046-1.181-.135-.371-.09-.696-.239-.976-.448-.281-.208-.502-.477-.663-.806-.161-.328-.241-.725-.241-1.191 0-.524.09-.954.269-1.288.179-.335.415-.606.708-.815.292-.208.626-.366 1.002-.474.376-.107.762-.198 1.156-.269.417-.084.814-.146 1.19-.188.376-.041.708-.101.994-.179.287-.077.514-.19.681-.341.167-.149.25-.366.25-.652 0-.335-.062-.603-.188-.807-.125-.203-.286-.357-.483-.465-.197-.107-.417-.18-.663-.215-.244-.036-.486-.054-.725-.054-.645 0-1.182.122-1.611.366-.43.244-.663.708-.698 1.389h-1.522c.023-.573.143-1.057.358-1.451.215-.394.501-.714.859-.958.359-.244.771-.42 1.236-.527.465-.108.955-.162 1.468-.162.417 0 .833.03 1.244.09.412.061.785.183 1.119.367.334.185.603.445.806.779s.305.77.305 1.307v4.762c0 .359.021.622.062.789.042.167.182.251.421.251.131 0 .287-.03.465-.091v1.182c-.265.156-.63.234-1.095.234zm-2.13-4.665c-.311.066-.636.12-.977.161-.34.042-.683.089-1.03.143-.346.054-.656.141-.931.261-.274.119-.498.29-.671.51-.173.222-.259.522-.259.903 0 .252.05.464.151.637.102.174.233.313.394.42.161.107.352.186.574.234.22.047.444.071.671.071.5 0 .931-.069 1.289-.206.358-.138.651-.312.877-.52.227-.209.395-.437.502-.681s.161-.474.161-.688v-1.559c-.191.144-.441.249-.751.314zm8.593-4.789v1.343h-1.844v5.746c0 .181.015.322.045.43.03.107.086.192.17.252.083.06.2.098.349.116.149.018.343.027.582.027h.698v1.343h-1.164c-.394 0-.732-.027-1.012-.081-.281-.054-.507-.151-.681-.295-.173-.145-.301-.347-.385-.608-.084-.264-.125-.609-.125-1.039v-5.891h-1.576v-1.343h1.576v-2.775h1.522v2.775h1.845zm8.237 8.666c-.692.524-1.564.788-2.614.788-.74 0-1.382-.12-1.925-.358-.543-.239-1-.573-1.37-1.003s-.647-.943-.832-1.541c-.186-.596-.29-1.247-.313-1.95 0-.705.107-1.35.322-1.934.215-.586.516-1.093.904-1.522.388-.43.847-.765 1.379-1.003.531-.239 1.113-.358 1.745-.358.824 0 1.508.17 2.051.511.543.34.979.772 1.307 1.298.328.526.556 1.098.681 1.72.125.62.176 1.211.152 1.772h-6.93c-.012.405.036.791.144 1.154.107.364.28.687.519.967.239.28.543.505.914.672.37.167.806.251 1.307.251.645 0 1.173-.149 1.585-.449.411-.298.684-.752.814-1.359h1.504c-.205 1.035-.652 1.819-1.344 2.344zm-.367-5.944c-.138-.324-.322-.601-.555-.834-.233-.232-.508-.418-.824-.555s-.665-.205-1.047-.205c-.395 0-.749.068-1.065.205s-.588.325-.815.564c-.227.238-.405.517-.537.832-.131.317-.209.654-.232 1.013h5.318c-.026-.358-.107-.698-.243-1.02zm187.183-69.048v16.271h-3.577v-16.271h3.577zm5.881 4.489v2.188h.046c.149-.365.355-.704.614-1.016.258-.31.554-.577.889-.798.333-.22.69-.391 1.07-.513.38-.12.775-.181 1.186-.181.212 0 .448.037.706.112v3.009c-.152-.03-.334-.058-.548-.08-.212-.023-.417-.034-.614-.034-.593 0-1.093.1-1.504.297s-.741.468-.991.809c-.251.343-.43.741-.535 1.196-.106.457-.16.949-.16 1.481v5.31h-3.236v-11.78h3.077zm8.864 0v2.188h.046c.15-.365.355-.704.614-1.016.258-.31.554-.577.89-.798.333-.22.689-.391 1.069-.513.38-.12.775-.181 1.186-.181.213 0 .449.037.707.112v3.009c-.153-.03-.335-.058-.548-.08-.213-.023-.418-.034-.615-.034-.592 0-1.093.1-1.504.297s-.741.468-.991.809c-.251.343-.43.741-.535 1.196-.106.457-.16.949-.16 1.481v5.31h-3.235v-11.78h3.076zm8.84 8.955c.486.472 1.186.708 2.098.708.652 0 1.215-.164 1.687-.49.471-.328.759-.673.866-1.038h2.848c-.455 1.414-1.155 2.424-2.096 3.032-.943.606-2.083.911-3.419.911-.928 0-1.763-.148-2.507-.444-.744-.297-1.375-.718-1.891-1.265-.519-.548-.915-1.2-1.197-1.96-.282-.761-.422-1.596-.422-2.507 0-.881.146-1.701.433-2.462.29-.76.699-1.416 1.231-1.971.531-.555 1.166-.991 1.902-1.311.737-.319 1.554-.478 2.45-.478 1.003 0 1.877.193 2.621.58.744.388 1.355.908 1.834 1.562.479.653.824 1.397 1.036 2.232.214.837.289 1.709.229 2.621h-8.5c.045 1.051.312 1.81.797 2.28zm3.659-6.197c-.388-.426-.977-.639-1.768-.639-.517 0-.946.088-1.287.263-.341.174-.615.391-.82.649-.205.258-.351.531-.434.82s-.132.547-.147.774h5.265c-.153-.819-.422-1.442-.809-1.867zm8.877 9.023l-4.034-11.781h3.396l2.484 8.045h.046l2.483-8.045h3.213l-3.987 11.781h-3.601zm12.397-2.826c.486.472 1.186.708 2.098.708.652 0 1.215-.164 1.686-.49.471-.328.759-.673.866-1.038h2.849c-.456 1.414-1.155 2.424-2.097 3.032-.942.606-2.082.911-3.418.911-.927 0-1.763-.148-2.507-.444-.745-.297-1.375-.718-1.893-1.265-.517-.548-.915-1.2-1.195-1.96-.281-.761-.422-1.596-.422-2.507 0-.881.145-1.701.434-2.462.287-.76.698-1.416 1.229-1.971.532-.555 1.166-.991 1.903-1.311.736-.319 1.553-.478 2.45-.478 1.003 0 1.876.193 2.62.58.744.388 1.356.908 1.835 1.562.479.653.824 1.397 1.036 2.232.214.837.289 1.709.229 2.621h-8.501c.046 1.051.311 1.81.798 2.28zm3.657-6.197c-.387-.426-.976-.639-1.766-.639-.517 0-.945.088-1.287.263-.341.174-.615.391-.82.649-.206.258-.35.531-.433.82-.085.289-.135.547-.149.774h5.265c-.152-.819-.421-1.442-.81-1.867zm9.036-2.758v2.188h.046c.151-.365.356-.704.615-1.016.258-.31.555-.577.889-.798.334-.22.691-.391 1.071-.513.379-.12.775-.181 1.185-.181.214 0 .448.037.706.112v3.009c-.151-.03-.334-.058-.547-.08-.213-.023-.417-.034-.614-.034-.594 0-1.095.1-1.504.297-.411.197-.741.468-.992.809-.25.343-.43.741-.536 1.196-.105.457-.158.949-.158 1.481v5.31h-3.236v-11.78h3.075zm8.841 8.955c.485.472 1.186.708 2.097.708.653 0 1.216-.164 1.687-.49.47-.328.759-.673.866-1.038h2.848c-.455 1.414-1.154 2.424-2.096 3.032-.942.606-2.082.911-3.418.911-.927 0-1.764-.148-2.507-.444-.745-.297-1.375-.718-1.893-1.265-.517-.548-.915-1.2-1.196-1.96-.28-.761-.421-1.596-.421-2.507 0-.881.145-1.701.434-2.462.287-.76.698-1.416 1.229-1.971s1.166-.991 1.902-1.311c.737-.319 1.554-.478 2.451-.478 1.003 0 1.875.193 2.62.58.744.388 1.356.908 1.835 1.562s.824 1.397 1.036 2.232c.214.837.288 1.709.229 2.621h-8.501c.046 1.051.312 1.81.798 2.28zm3.657-6.197c-.387-.426-.977-.639-1.766-.639-.517 0-.945.088-1.287.263-.342.174-.615.391-.821.649-.205.258-.349.531-.432.82-.085.289-.135.547-.149.774h5.265c-.152-.819-.422-1.442-.81-1.867zm9.036-2.758v1.641h.068c.41-.684.941-1.181 1.596-1.492.652-.312 1.321-.467 2.005-.467.865 0 1.576.116 2.13.353.555.235.993.562 1.311.979.319.418.544.928.673 1.527.129.601.193 1.265.193 1.994v7.246h-3.235v-6.654c0-.972-.152-1.697-.456-2.176-.305-.479-.843-.718-1.617-.718-.883 0-1.521.262-1.915.786-.395.523-.592 1.387-.592 2.586v6.176h-3.236v-11.781h3.075zm16.909 0v2.165h-2.369v5.834c0 .547.09.91.272 1.093s.548.274 1.094.274c.183 0 .357-.008.524-.022.167-.016.326-.038.479-.069v2.507c-.273.046-.577.075-.911.092-.334.015-.661.022-.98.022-.501 0-.976-.035-1.425-.104-.448-.066-.843-.2-1.184-.398-.343-.196-.612-.478-.81-.843-.197-.364-.297-.844-.297-1.436v-6.95h-1.959v-2.165h1.959v-3.533h3.237v3.533h2.37zm-80.542 20.483v4.781h.036c.251-.513.646-.886 1.183-1.118.537-.233 1.129-.351 1.772-.351.716 0 1.341.132 1.871.395.53.264.974.618 1.325 1.065.352.448.617.964.797 1.549.178.586.269 1.206.269 1.862 0 .657-.087 1.277-.26 1.862-.174.584-.436 1.095-.787 1.531-.354.435-.795.778-1.327 1.029-.529.25-1.148.376-1.853.376-.227 0-.48-.024-.76-.072-.282-.047-.559-.125-.833-.232-.276-.107-.534-.254-.778-.439-.245-.184-.451-.414-.619-.688h-.036v1.235h-1.521v-12.785h1.521zm5.47 6.815c-.113-.412-.286-.78-.519-1.103-.233-.322-.532-.579-.896-.77-.364-.19-.791-.286-1.28-.286-.514 0-.95.101-1.308.304-.357.204-.649.469-.878.798-.226.327-.39.7-.491 1.118-.103.419-.153.842-.153 1.271 0 .454.054.893.161 1.315.107.425.278.798.511 1.12.233.322.534.581.904.779.371.197.818.295 1.343.295.526 0 .964-.102 1.316-.305.352-.203.636-.472.851-.806s.371-.716.465-1.146c.097-.43.144-.871.144-1.325 0-.427-.056-.848-.17-1.259zm9.803 5.971v-1.469h-.035c-.322.573-.733.995-1.235 1.264s-1.093.402-1.772.402c-.609 0-1.117-.08-1.522-.241s-.733-.391-.985-.69c-.25-.298-.427-.654-.526-1.064-.103-.413-.153-.869-.153-1.37v-6.088h1.522v6.267c0 .573.167 1.027.5 1.36.335.334.795.502 1.38.502.465 0 .867-.071 1.209-.215.341-.144.623-.347.851-.609.226-.262.396-.569.511-.921.112-.353.169-.737.169-1.156v-5.228h1.522v9.257h-1.436zm7.683-9.257v1.343h-1.845v5.747c0 .18.015.322.044.43s.087.191.171.251c.083.061.2.098.349.117.149.017.344.026.583.026h.698v1.343h-1.164c-.395 0-.731-.026-1.013-.081-.28-.053-.508-.151-.68-.295-.173-.144-.302-.347-.385-.608-.083-.263-.125-.609-.125-1.039v-5.891h-1.576v-1.343h1.576v-2.775h1.521v2.775h1.846zm8.092 0v1.468h.036c.632-1.122 1.635-1.684 3.007-1.684.61 0 1.117.085 1.523.251.405.168.734.4.983.698.251.3.428.654.529 1.066.101.41.151.868.151 1.369v6.088h-1.521v-6.267c0-.573-.168-1.027-.503-1.361-.334-.334-.793-.501-1.379-.501-.464 0-.867.071-1.208.215-.34.143-.623.347-.85.608-.228.264-.397.57-.511.923-.114.352-.17.737-.17 1.154v5.229h-1.523v-9.257h1.436zm8.309 2.73c.191-.591.478-1.104.86-1.541.381-.435.853-.778 1.413-1.028.562-.251 1.206-.377 1.934-.377.74 0 1.389.126 1.943.377.556.25 1.023.594 1.406 1.028.381.437.668.95.858 1.541.191.59.288 1.227.288 1.906 0 .681-.097 1.314-.288 1.898-.19.586-.478 1.096-.858 1.53-.383.437-.851.776-1.406 1.021-.555.245-1.203.368-1.943.368-.728 0-1.372-.123-1.934-.368-.561-.244-1.032-.584-1.413-1.021-.383-.435-.669-.944-.86-1.53-.191-.584-.286-1.218-.286-1.898 0-.679.095-1.316.286-1.906zm1.549 3.403c.149.436.354.8.617 1.091.264.293.57.518.923.672.352.155.726.233 1.118.233.396 0 .768-.078 1.12-.233.352-.154.659-.379.923-.672.262-.291.467-.655.617-1.091.149-.436.223-.935.223-1.496 0-.56-.073-1.059-.223-1.494-.15-.437-.355-.804-.617-1.102-.264-.298-.571-.524-.923-.681-.353-.154-.725-.232-1.12-.232-.393 0-.767.078-1.118.232-.353.156-.659.383-.923.681-.263.298-.468.665-.617 1.102-.148.436-.225.935-.225 1.494 0 .561.076 1.06.225 1.496zm12.9-6.133v1.343h-1.845v5.747c0 .18.015.322.044.43.03.107.088.191.171.251.083.061.2.098.349.117.149.017.344.026.583.026h.698v1.343h-1.164c-.395 0-.731-.026-1.012-.081-.281-.053-.508-.151-.68-.295-.174-.144-.303-.347-.386-.608-.083-.263-.125-.609-.125-1.039v-5.891h-1.576v-1.343h1.576v-2.775h1.521v2.775h1.846zm-68.846 30.742v-1.252h-.036c-.25.513-.645.883-1.182 1.108-.537.228-1.128.341-1.772.341-.717 0-1.34-.131-1.872-.395-.531-.262-.972-.613-1.323-1.055-.354-.442-.618-.956-.798-1.541-.179-.585-.269-1.205-.269-1.861 0-.657.086-1.277.261-1.863.172-.585.435-1.095.786-1.53.353-.437.795-.782 1.325-1.039s1.148-.386 1.854-.386c.237 0 .494.024.769.073.274.047.55.127.824.241.273.113.534.264.778.447.244.186.451.415.618.69h.036v-4.765h1.521v12.785h-1.52zm-5.47-3.285c.114.412.286.778.52 1.101.232.322.531.579.895.77.365.192.792.287 1.281.287.513 0 .949-.102 1.308-.305.357-.202.649-.469.877-.796.227-.329.391-.701.492-1.12.102-.417.152-.842.152-1.271 0-.452-.054-.892-.161-1.315-.107-.423-.278-.797-.511-1.119s-.534-.582-.903-.778c-.37-.197-.819-.295-1.343-.295-.515 0-.95.101-1.308.303-.358.204-.645.473-.859.806-.215.335-.371.717-.466 1.146-.096.43-.144.872-.144 1.325 0 .428.056.849.17 1.261zm9.428-7.638v-1.862h1.522v1.862h-1.522zm1.522 1.667v9.256h-1.522v-9.256h1.522zm3.527 7.189c.144.232.331.417.563.555.232.137.495.236.788.295.293.061.594.09.903.09.239 0 .49-.017.752-.054.263-.036.504-.102.727-.197.221-.095.403-.234.545-.42.143-.186.215-.422.215-.708 0-.394-.15-.691-.448-.896-.298-.202-.671-.366-1.118-.491-.447-.126-.934-.239-1.46-.341-.524-.101-1.011-.244-1.458-.43-.448-.186-.821-.444-1.119-.779-.299-.334-.449-.8-.449-1.396 0-.466.105-.865.314-1.2.21-.333.479-.605.806-.813.328-.209.698-.365 1.11-.466.412-.102.82-.153 1.226-.153.526 0 1.01.046 1.45.136.443.089.833.244 1.174.465.341.222.612.52.815.896.202.376.322.845.358 1.406h-1.523c-.023-.299-.102-.547-.233-.744-.131-.196-.298-.354-.501-.475-.202-.119-.427-.205-.671-.259s-.493-.08-.742-.08c-.229 0-.457.017-.69.054-.232.034-.444.098-.635.188-.192.089-.347.208-.466.357-.12.15-.179.344-.179.582 0 .263.093.481.277.654s.421.315.706.43c.288.113.61.208.967.286l1.074.241c.383.084.755.186 1.12.305.364.12.687.277.967.475s.508.444.681.744c.173.298.259.668.259 1.108 0 .562-.115 1.027-.349 1.397-.232.37-.537.669-.913.895-.376.228-.801.386-1.271.476-.472.089-.94.134-1.406.134-.513 0-1.001-.054-1.467-.161s-.877-.283-1.237-.528c-.356-.245-.645-.566-.859-.967s-.333-.887-.356-1.46h1.522c.01.332.088.615.231.849zm9.167-7.189v1.95h.037c.369-.752.822-1.306 1.359-1.665.537-.358 1.219-.524 2.041-.502v1.613c-.607 0-1.128.083-1.558.249-.43.168-.775.412-1.037.734-.264.322-.454.713-.573 1.174-.12.459-.179.987-.179 1.584v4.118h-1.522v-9.256h1.432zm10.815 8.665c-.691.525-1.562.788-2.614.788-.739 0-1.382-.119-1.924-.358-.544-.238-1.001-.573-1.371-1.003-.369-.43-.647-.942-.832-1.54-.186-.596-.289-1.247-.313-1.95 0-.705.107-1.35.322-1.934.215-.586.518-1.094.905-1.523.387-.43.846-.764 1.378-1.003.531-.238 1.112-.358 1.746-.358.823 0 1.507.171 2.051.512.542.34.978.772 1.307 1.297.327.526.555 1.099.681 1.721.125.62.176 1.211.151 1.771h-6.93c-.011.406.036.791.144 1.155.107.363.281.686.52.967.238.28.543.505.913.671.369.168.806.251 1.307.251.645 0 1.174-.148 1.586-.448.411-.298.682-.752.813-1.36h1.504c-.205 1.036-.651 1.82-1.344 2.344zm-.366-5.943c-.138-.324-.322-.601-.555-.834-.233-.232-.508-.418-.824-.555-.317-.137-.666-.205-1.048-.205-.394 0-.749.068-1.066.205-.314.137-.588.325-.813.563-.227.239-.405.518-.537.833-.131.316-.209.653-.233 1.013h5.318c-.026-.359-.106-.698-.242-1.02zm4.591 4.467c.144.232.331.417.563.555.234.137.496.236.788.295.293.061.594.09.905.09.238 0 .489-.017.752-.054.262-.036.504-.102.725-.197.221-.095.403-.234.546-.42.144-.186.216-.422.216-.708 0-.394-.15-.691-.448-.896-.298-.202-.672-.366-1.118-.491-.449-.126-.935-.239-1.46-.341-.526-.101-1.013-.244-1.46-.43-.446-.186-.82-.444-1.119-.779-.298-.334-.447-.8-.447-1.396 0-.466.104-.865.312-1.2.21-.333.479-.605.808-.813.327-.209.698-.365 1.108-.466.412-.102.822-.153 1.228-.153.525 0 1.009.046 1.45.136.441.089.832.244 1.174.465.339.222.61.52.813.896.202.376.322.845.358 1.406h-1.522c-.023-.299-.101-.547-.232-.744-.132-.196-.298-.354-.501-.475-.204-.119-.427-.205-.671-.259-.246-.054-.493-.08-.744-.08-.228 0-.457.017-.688.054-.234.034-.446.098-.637.188-.19.089-.347.208-.465.357-.119.15-.18.344-.18.582 0 .263.093.481.277.654.186.173.421.315.708.43.286.113.608.208.967.286l1.074.241c.381.084.755.186 1.118.305.365.12.688.277.969.475.279.197.506.444.679.744.174.298.261.668.261 1.108 0 .562-.117 1.027-.35 1.397-.233.37-.537.669-.912.895-.376.228-.801.386-1.271.476-.473.089-.94.134-1.406.134-.513 0-1.003-.054-1.469-.161-.465-.107-.877-.283-1.235-.528-.357-.245-.645-.566-.859-.967s-.334-.887-.358-1.46h1.522c.011.332.089.615.231.849zm9.366-7.189v1.252h.036c.25-.513.645-.886 1.182-1.118.537-.233 1.128-.351 1.772-.351.716 0 1.34.132 1.871.395.53.264.973.618 1.324 1.065.354.448.619.964.798 1.549.179.586.269 1.206.269 1.862 0 .657-.088 1.277-.26 1.862-.173.585-.437 1.095-.788 1.531-.353.435-.795.778-1.325 1.029-.531.25-1.149.376-1.853.376-.227 0-.48-.023-.762-.072-.28-.047-.559-.125-.832-.232-.275-.107-.534-.254-.779-.438s-.451-.415-.617-.689h-.036v4.763h-1.522v-12.783h1.522zm5.469 3.285c-.114-.412-.286-.78-.52-1.103-.232-.322-.53-.578-.895-.77-.365-.19-.792-.285-1.28-.285-.513 0-.949.101-1.307.303-.358.204-.651.469-.878.798-.227.328-.391.701-.493 1.118-.101.419-.151.842-.151 1.271 0 .454.054.894.161 1.316.107.424.278.797.51 1.119.232.322.534.582.905.779.369.197.816.295 1.343.295.524 0 .964-.102 1.315-.305.353-.202.636-.471.851-.806.215-.334.37-.715.466-1.145.095-.43.144-.872.144-1.326 0-.427-.057-.848-.171-1.259zm10.125 5.38c-.691.525-1.562.788-2.613.788-.74 0-1.382-.119-1.925-.358-.544-.238-1-.573-1.369-1.003-.371-.43-.648-.942-.834-1.54-.184-.596-.289-1.247-.312-1.95 0-.705.107-1.35.322-1.934.215-.586.517-1.094.904-1.523.387-.43.848-.764 1.378-1.003.531-.238 1.113-.358 1.747-.358.823 0 1.506.171 2.05.512.543.34.978.772 1.307 1.297.328.526.555 1.099.681 1.721.125.62.176 1.211.151 1.771h-6.929c-.013.406.036.791.144 1.155.107.363.28.686.52.967.237.28.542.505.913.671.369.168.806.251 1.306.251.645 0 1.174-.148 1.586-.448.411-.298.683-.752.814-1.36h1.503c-.203 1.036-.65 1.82-1.344 2.344zm-.366-5.943c-.137-.324-.322-.601-.555-.834-.233-.232-.507-.418-.824-.555-.316-.137-.666-.205-1.047-.205-.394 0-.75.068-1.066.205-.315.137-.588.325-.813.563-.228.239-.407.518-.537.833-.132.316-.21.653-.233 1.013h5.318c-.025-.359-.106-.698-.243-1.02zm8.961-1.111c-.381-.322-.896-.483-1.54-.483-.549 0-1.008.101-1.379.303-.369.204-.664.473-.886.806-.221.335-.379.72-.475 1.156-.095.436-.144.887-.144 1.351 0 .43.051.849.153 1.254.101.406.259.767.474 1.084.215.315.496.569.842.76.347.192.758.287 1.235.287.752 0 1.341-.197 1.765-.591.423-.395.682-.949.778-1.664h1.558c-.168 1.145-.595 2.028-1.28 2.648-.687.622-1.621.932-2.803.932-.703 0-1.327-.113-1.87-.341-.544-.226-.998-.549-1.361-.967-.364-.417-.638-.915-.823-1.494s-.278-1.215-.278-1.908c0-.691.09-1.339.269-1.941s.451-1.129.815-1.576c.363-.447.82-.8 1.369-1.057.55-.257 1.188-.386 1.916-.386.525 0 1.018.063 1.478.189.459.125.866.318 1.218.582.352.263.642.593.868.993.228.4.37.874.43 1.423h-1.576c-.12-.584-.37-1.037-.753-1.36zm8.04-1.611v1.343h-1.845v5.746c0 .18.015.322.044.43.03.107.088.192.171.251.083.061.2.099.349.117.149.018.344.026.583.026h.698v1.343h-1.164c-.395 0-.731-.026-1.012-.08-.281-.054-.508-.152-.68-.296-.174-.144-.303-.346-.386-.608s-.125-.609-.125-1.039v-5.89h-1.576v-1.343h1.576v-2.775h1.521v2.775h1.846zm.752 1.343v-1.343h1.558v-1.379c0-.752.218-1.323.654-1.711.435-.388 1.071-.581 1.906-.581.144 0 .308.012.493.034.185.024.349.061.492.107v1.325c-.132-.047-.275-.08-.43-.098l-.43-.026c-.37 0-.656.07-.86.215-.203.144-.304.417-.304.822v1.291h1.79v1.343h-1.79v7.913h-1.522v-7.913h-1.557zm12.462 7.913v-1.469h-.035c-.322.573-.734.995-1.236 1.264-.501.269-1.092.402-1.772.402-.608 0-1.116-.08-1.521-.241-.407-.161-.734-.391-.985-.69-.25-.298-.427-.653-.528-1.064-.102-.412-.152-.869-.152-1.369v-6.088h1.522v6.266c0 .573.166 1.027.501 1.36.334.335.795.502 1.379.502.466 0 .868-.071 1.208-.215.341-.144.624-.346.852-.609.227-.262.396-.569.51-.921.113-.352.171-.737.171-1.156v-5.227h1.521v9.256h-1.435zm5.337-12.785v12.785h-1.523v-12.785h1.523zm1.33-236.736v-3.009h13.332v3.009h-4.878v13.264h-3.577v-13.264h-4.877zm14.948-.341v-2.667h3.237v2.667h-3.237zm3.237 1.823v11.782h-3.237v-11.782h3.237zm5.698 0v1.595h.046c.424-.606.937-1.078 1.537-1.412.601-.335 1.288-.502 2.062-.502.745 0 1.425.145 2.039.434.616.288 1.084.797 1.402 1.526.349-.516.824-.973 1.425-1.367.6-.395 1.311-.593 2.131-.593.623 0 1.2.077 1.731.228.532.153.987.395 1.367.73.38.333.677.771.889 1.311.212.539.319 1.188.319 1.947v7.886h-3.235v-6.678c0-.395-.017-.767-.046-1.117-.031-.349-.114-.652-.251-.91-.137-.259-.339-.465-.604-.616s-.627-.227-1.082-.227-.824.086-1.105.26c-.281.176-.502.403-.66.686-.16.281-.266.6-.319.955-.054.357-.079.72-.079 1.084v6.563h-3.236v-6.609c0-.349-.008-.694-.022-1.038-.017-.341-.081-.654-.195-.944-.114-.288-.303-.521-.569-.696-.266-.174-.657-.26-1.173-.26-.152 0-.354.033-.604.102s-.494.197-.729.387c-.236.19-.436.465-.604.822-.167.356-.25.824-.25 1.4v6.837h-3.237v-11.782h3.052zm20.965 8.955c.486.473 1.186.707 2.097.707.653 0 1.216-.163 1.687-.489.471-.327.759-.673.866-1.036h2.848c-.455 1.412-1.154 2.422-2.096 3.029-.942.609-2.082.912-3.418.912-.927 0-1.764-.147-2.507-.445-.746-.295-1.375-.717-1.893-1.265-.517-.545-.915-1.199-1.196-1.959-.28-.759-.421-1.596-.421-2.507 0-.881.145-1.701.434-2.461.287-.759.698-1.417 1.229-1.972.532-.554 1.165-.992 1.902-1.311.737-.317 1.554-.479 2.451-.479 1.003 0 1.875.194 2.62.582.744.387 1.356.908 1.834 1.561.479.652.825 1.397 1.037 2.234.213.835.289 1.708.229 2.619h-8.501c.046 1.05.311 1.81.798 2.28zm3.657-6.197c-.387-.426-.976-.64-1.766-.64-.517 0-.945.089-1.288.264-.341.175-.614.392-.82.649-.205.258-.349.532-.432.819-.085.29-.135.548-.149.776h5.265c-.152-.821-.422-1.443-.81-1.868zm9.287-7.248v16.272h-3.237v-16.272h3.237zm6.904 19.782c-.623.409-1.489.614-2.598.614-.335 0-.665-.012-.991-.033l-.991-.08v-2.667l.935.091c.318.031.638.038.957.023.425-.045.74-.214.945-.501.206-.289.308-.608.308-.957 0-.26-.045-.501-.137-.729l-4.125-11.053h3.441l2.667 8.066h.046l2.575-8.066h3.35l-4.922 13.24c-.35.957-.837 1.642-1.46 2.052zm-57.674 5.191v4.78h.036c.25-.513.645-.886 1.182-1.118s1.128-.35 1.772-.35c.716 0 1.34.132 1.872.394.53.264.972.618 1.324 1.066.353.447.618.964.797 1.549s.269 1.206.269 1.861c0 .658-.087 1.278-.259 1.862-.174.586-.437 1.096-.788 1.532-.354.435-.795.778-1.325 1.028-.532.251-1.149.376-1.854.376-.227 0-.48-.024-.761-.071-.281-.048-.559-.125-.833-.232-.275-.107-.534-.255-.778-.438-.246-.186-.451-.415-.618-.689h-.036v1.235h-1.522v-12.785h1.522zm5.471 6.814c-.114-.411-.286-.779-.521-1.102-.231-.322-.529-.578-.894-.771-.365-.19-.792-.286-1.281-.286-.513 0-.949.103-1.307.305-.358.203-.65.469-.878.798-.227.327-.391.701-.492 1.118-.102.418-.152.842-.152 1.271 0 .454.054.892.161 1.316.107.424.278.796.511 1.118.232.323.534.581.904.78.369.196.816.295 1.343.295.525 0 .964-.102 1.316-.306.352-.201.635-.47.85-.806.215-.333.37-.716.466-1.146s.144-.871.144-1.325c0-.427-.058-.847-.17-1.259zm9.803 5.971v-1.469h-.035c-.322.572-.734.994-1.236 1.263-.501.269-1.092.402-1.772.402-.608 0-1.116-.08-1.521-.241-.406-.161-.734-.392-.985-.69-.25-.298-.427-.652-.527-1.063-.103-.414-.153-.87-.153-1.371v-6.088h1.522v6.267c0 .573.167 1.027.501 1.361s.795.502 1.379.502c.466 0 .869-.072 1.208-.215.341-.145.625-.346.852-.609.227-.263.396-.569.511-.922.112-.353.17-.737.17-1.155v-5.229h1.521v9.258h-1.435zm7.682-9.257v1.343h-1.845v5.748c0 .18.015.322.044.43.03.107.088.19.171.25.083.061.2.1.349.118.149.016.344.026.583.026h.698v1.343h-1.164c-.395 0-.731-.026-1.013-.08-.28-.054-.507-.153-.679-.296-.174-.144-.303-.346-.386-.609-.083-.263-.125-.609-.125-1.039v-5.891h-1.576v-1.343h1.576v-2.775h1.521v2.775h1.846zm8.093 0v1.468h.036c.632-1.121 1.635-1.683 3.008-1.683.609 0 1.117.085 1.522.251.405.167.734.4.983.698.252.299.428.653.529 1.065.101.412.152.868.152 1.37v6.088h-1.521v-6.268c0-.571-.168-1.025-.502-1.361-.335-.333-.794-.501-1.379-.501-.465 0-.868.071-1.209.215-.34.144-.623.347-.85.608-.227.263-.397.57-.511.924-.114.352-.17.735-.17 1.154v5.229h-1.522v-9.258h1.434zm8.309 2.729c.191-.59.478-1.104.86-1.538.381-.436.853-.779 1.414-1.03.561-.251 1.205-.376 1.934-.376.739 0 1.388.125 1.942.376.556.251 1.023.595 1.406 1.03.381.435.668.948.858 1.538.191.593.288 1.228.288 1.908s-.097 1.313-.288 1.897c-.19.585-.478 1.096-.858 1.53-.383.438-.851.776-1.406 1.022-.555.244-1.203.366-1.942.366-.729 0-1.373-.122-1.934-.366-.562-.246-1.033-.584-1.414-1.022-.383-.435-.669-.945-.86-1.53-.191-.584-.286-1.217-.286-1.897s.094-1.315.286-1.908zm1.549 3.402c.149.437.354.801.618 1.094.263.292.569.516.922.671.352.156.726.233 1.119.233.395 0 .767-.077 1.119-.233.352-.155.659-.379.923-.671.262-.293.467-.657.617-1.094.149-.435.224-.933.224-1.494 0-.561-.074-1.06-.224-1.494-.15-.437-.355-.803-.617-1.102-.264-.299-.571-.525-.923-.682-.353-.154-.725-.232-1.119-.232s-.768.078-1.119.232c-.353.156-.659.383-.922.682-.264.299-.469.665-.618 1.102-.148.435-.224.934-.224 1.494 0 .562.075 1.06.224 1.494zm12.9-6.131v1.343h-1.845v5.748c0 .18.015.322.045.43.029.107.087.19.17.25.084.061.2.1.35.118.148.016.344.026.582.026h.698v1.343h-1.164c-.395 0-.731-.026-1.012-.08-.281-.054-.508-.153-.68-.296-.173-.144-.302-.346-.386-.609-.083-.263-.125-.609-.125-1.039v-5.891h-1.576v-1.343h1.576v-2.775h1.521v2.775h1.846zm-59.723 30.744v-1.253h-.036c-.25.514-.645.883-1.182 1.11-.537.226-1.128.34-1.771.34-.716 0-1.341-.131-1.872-.394-.53-.264-.973-.615-1.324-1.057-.353-.442-.619-.955-.798-1.54-.178-.586-.268-1.206-.268-1.861 0-.658.086-1.278.259-1.863.173-.584.437-1.095.788-1.531.352-.435.793-.781 1.325-1.039.532-.255 1.149-.384 1.853-.384.239 0 .496.024.771.072.273.047.549.128.822.242.275.112.535.262.779.445.244.186.451.416.617.69h.036v-4.763h1.522v12.784h-1.521zm-5.469-3.284c.113.41.286.778.52 1.101.232.322.53.579.895.77.365.191.791.286 1.281.286.513 0 .949-.101 1.306-.304.358-.204.651-.469.878-.798.228-.327.391-.7.493-1.119.101-.417.151-.841.151-1.271 0-.454-.054-.892-.161-1.315-.107-.425-.277-.798-.51-1.12s-.534-.581-.905-.779c-.369-.195-.817-.295-1.343-.295-.513 0-.947.102-1.306.305-.359.203-.645.472-.859.806s-.371.716-.467 1.146c-.095.43-.144.872-.144 1.326 0 .428.056.846.171 1.261zm9.426-7.638v-1.862h1.522v1.862h-1.522zm1.523 1.665v9.257h-1.522v-9.257h1.522zm3.526 7.188c.144.233.331.419.563.556.234.138.496.236.789.296.292.059.593.089.904.089.238 0 .489-.018.752-.054.262-.035.504-.101.725-.196.221-.097.403-.236.546-.422.144-.186.216-.42.216-.706 0-.395-.15-.692-.448-.896-.298-.202-.671-.365-1.118-.492-.449-.126-.935-.238-1.46-.341-.526-.101-1.013-.244-1.46-.43-.446-.184-.82-.443-1.119-.778-.298-.333-.447-.799-.447-1.396 0-.465.104-.865.312-1.199.21-.334.479-.605.808-.815.327-.209.698-.363 1.108-.464.412-.103.822-.153 1.228-.153.525 0 1.009.046 1.45.135.441.088.832.244 1.174.464.34.223.61.521.813.897.202.376.322.843.358 1.404h-1.522c-.023-.298-.101-.545-.232-.743-.132-.197-.298-.355-.501-.474-.204-.119-.427-.207-.671-.261-.246-.054-.493-.08-.744-.08-.228 0-.456.019-.688.054-.234.036-.446.1-.637.188-.19.09-.347.21-.465.359-.119.148-.18.342-.18.581 0 .263.093.48.277.653.186.174.421.316.708.43.286.114.608.21.967.286l1.074.242c.381.084.755.185 1.118.305.365.119.688.277.969.474.279.199.506.446.679.744.174.298.261.669.261 1.11 0 .562-.117 1.027-.35 1.396-.233.369-.536.669-.912.896s-.801.384-1.271.474c-.473.09-.94.135-1.406.135-.513 0-1.003-.054-1.469-.161-.465-.107-.877-.283-1.235-.528-.357-.244-.645-.566-.859-.967-.215-.399-.334-.886-.358-1.459h1.522c.011.332.089.615.231.847zm11.747-7.188v1.343h-1.845v5.748c0 .179.015.322.044.43s.088.191.171.251c.083.059.2.098.349.115.149.019.344.027.583.027h.698v1.343h-1.164c-.395 0-.731-.027-1.013-.081-.28-.054-.507-.151-.679-.295-.174-.143-.303-.347-.386-.608s-.125-.608-.125-1.038v-5.892h-1.576v-1.343h1.576v-2.775h1.521v2.775h1.846zm3.062 0v1.952h.036c.369-.752.823-1.308 1.36-1.665.538-.359 1.218-.526 2.042-.502v1.611c-.609 0-1.128.083-1.558.251-.431.168-.776.412-1.039.734-.264.322-.454.713-.573 1.172-.12.461-.179.988-.179 1.586v4.117h-1.522v-9.257h1.433zm11.693 9.454c-.395 0-.708-.11-.94-.332-.233-.22-.349-.581-.349-1.082-.419.501-.905.862-1.46 1.082-.556.222-1.154.332-1.8.332-.418 0-.812-.045-1.182-.135-.369-.09-.695-.237-.975-.447-.281-.209-.503-.478-.664-.806-.161-.327-.241-.725-.241-1.19 0-.525.09-.955.269-1.29.179-.333.415-.604.708-.814.292-.209.627-.367 1.002-.475.377-.107.761-.196 1.155-.269.417-.084.815-.146 1.19-.188.377-.04.707-.101.994-.179.286-.076.513-.19.68-.339.168-.15.251-.368.251-.654 0-.334-.062-.603-.188-.806-.125-.203-.286-.358-.483-.466s-.417-.179-.662-.215c-.245-.035-.487-.054-.725-.054-.645 0-1.183.123-1.612.368-.43.244-.662.706-.698 1.387h-1.521c.024-.573.143-1.057.358-1.45.215-.394.501-.713.859-.957.357-.245.77-.422 1.235-.529.465-.107.954-.161 1.468-.161.417 0 .832.029 1.244.089.412.062.786.183 1.12.367.333.186.602.446.806.779.203.334.304.771.304 1.308v4.763c0 .358.021.621.062.788.042.166.182.25.421.25.131 0 .287-.03.466-.089v1.182c-.262.155-.627.232-1.092.232zm-2.131-4.663c-.312.064-.637.118-.977.161-.339.04-.683.088-1.029.142s-.657.14-.931.261c-.275.118-.5.289-.672.511-.173.22-.26.521-.26.903 0 .251.051.463.152.635.102.174.232.314.394.422s.353.186.573.232.445.071.672.071c.501 0 .931-.067 1.289-.206.358-.137.649-.31.877-.52.227-.208.395-.435.502-.679.107-.245.161-.476.161-.69v-1.558c-.189.143-.441.248-.751.315zm10.169-3.18c-.381-.322-.896-.483-1.539-.483-.55 0-1.009.102-1.38.305-.369.203-.664.472-.886.806-.221.334-.379.719-.474 1.154-.096.437-.144.887-.144 1.353 0 .43.051.849.152 1.254s.26.767.475 1.082c.215.317.495.571.842.762.346.191.757.286 1.235.286.751 0 1.34-.196 1.764-.591.423-.394.683-.948.779-1.665h1.558c-.168 1.146-.596 2.03-1.281 2.65-.687.62-1.621.931-2.803.931-.703 0-1.327-.114-1.87-.34-.544-.228-.997-.55-1.361-.967-.364-.419-.638-.916-.823-1.496-.186-.578-.277-1.214-.277-1.906 0-.693.09-1.34.269-1.943.179-.603.451-1.128.814-1.574.364-.449.82-.801 1.37-1.059.549-.255 1.188-.384 1.916-.384.524 0 1.018.062 1.477.188.459.127.866.32 1.218.583.352.262.642.594.869.994.227.399.369.874.429 1.423h-1.576c-.12-.586-.37-1.041-.753-1.363zm8.04-1.611v1.343h-1.845v5.748c0 .179.015.322.045.43.029.107.087.191.17.251.084.059.2.098.35.115.148.019.344.027.582.027h.698v1.343h-1.164c-.395 0-.731-.027-1.012-.081-.281-.054-.508-.151-.68-.295-.173-.143-.302-.347-.386-.608-.083-.262-.125-.608-.125-1.038v-5.892h-1.576v-1.343h1.576v-2.775h1.521v2.775h1.846zm1.773-1.665v-1.862h1.523v1.862h-1.523zm1.523 1.665v9.257h-1.523v-9.257h1.523zm3.794 0v1.469h.036c.633-1.122 1.636-1.684 3.008-1.684.609 0 1.117.083 1.522.25.405.169.734.399.984.699.251.298.427.654.528 1.064.102.412.152.869.152 1.37v6.088h-1.521v-6.267c0-.573-.168-1.027-.502-1.36-.334-.334-.794-.502-1.379-.502-.465 0-.867.072-1.209.215-.339.144-.623.347-.85.609-.227.262-.397.569-.51.921-.114.352-.171.738-.171 1.155v5.229h-1.522v-9.257h1.434zm15.472 11.872c-.692.752-1.779 1.128-3.259 1.128-.43 0-.868-.049-1.317-.144-.447-.096-.853-.251-1.216-.466-.365-.215-.666-.496-.905-.841-.239-.347-.369-.771-.394-1.272h1.521c.012.274.1.507.261.697.161.192.356.347.591.468.231.118.485.205.761.259.274.054.537.081.787.081.502 0 .925-.088 1.271-.26.347-.174.633-.413.859-.717s.391-.671.492-1.101.152-.902.152-1.415v-.608h-.035c-.263.573-.66.993-1.191 1.262s-1.095.403-1.691.403c-.692 0-1.296-.125-1.809-.376-.514-.251-.943-.587-1.289-1.012-.346-.424-.606-.919-.78-1.486-.173-.567-.259-1.166-.259-1.8 0-.548.071-1.112.215-1.692.144-.577.383-1.104.717-1.574.333-.472.775-.861 1.324-1.165.549-.303 1.225-.456 2.023-.456.585 0 1.122.129 1.611.384.49.258.871.642 1.146 1.156h.018v-1.325h1.433v8.47c.001 1.514-.346 2.65-1.037 3.402zm-1.944-4.164c.353-.208.636-.483.851-.823.215-.341.373-.725.476-1.154.101-.43.151-.859.151-1.29 0-.405-.049-.806-.144-1.199-.096-.395-.247-.749-.457-1.066-.208-.315-.48-.569-.814-.76-.335-.19-.74-.287-1.217-.287-.49 0-.907.093-1.254.278-.347.185-.63.432-.85.742-.222.312-.383.668-.483 1.074-.103.406-.153.829-.153 1.271 0 .417.041.836.126 1.253.083.419.226.797.43 1.138.203.34.472.615.806.823s.752.313 1.253.313c.501 0 .927-.105 1.279-.313z" fill="#fff"/></svg>