<?xml version="1.0" encoding="utf-8"?>
<!-- Generator: Adobe Illustrator 18.0.0, SVG Export Plug-In . SVG Version: 6.00 Build 0)  -->
<!DOCTYPE svg PUBLIC "-//W3C//DTD SVG 1.1//EN" "http://www.w3.org/Graphics/SVG/1.1/DTD/svg11.dtd">
<svg version="1.1" id="Layer_1" xmlns="http://www.w3.org/2000/svg" xmlns:xlink="http://www.w3.org/1999/xlink" x="0px" y="0px"
	 viewBox="0 0 927 62" enable-background="new 0 0 927 62" xml:space="preserve">
<g id="Mouth_Plate__x5B_Bottom_x5D_">
	<path fill="#9A9999" d="M904.5,62h-883c-6.2,0-10.9-5.7-9.9-11.8l6.6-39.6c0.8-4.8,5-8.6,9.9-8.6h869.8c4.9,0,9,3.7,9.9,8.5
		l6.6,39.6C915.4,56.2,910.7,62,904.5,62z"/>
	<path id="Screw_Plate__x5B_Bottom_x5D_" fill="#F9D3DE" d="M917.1,17h-7.9l-1.4-8.5c-0.8-4.8-5-8.5-9.9-8.5H28.1
		c-4.9,0-9,3.8-9.9,8.6L16.9,17h-7C4.4,17,0,21.4,0,26.9v0.2C0,32.6,4.4,37,9.9,37h3.6l-1.9,11.2c-1,6.1,3.7,11.8,9.9,11.8h883
		c6.2,0,10.9-5.8,9.9-11.9L912.5,37h4.6c5.5,0,9.9-4.4,9.9-9.9v-0.2C927,21.4,922.6,17,917.1,17z"/>
	<path fill="#808081" d="M890.9,48L35.1,48c-6,0-10.7-5.3-9.9-11.2l2.5-20c0.6-5,4.9-8.8,9.9-8.8l850.9,0c5,0,9.3,3.8,9.9,8.8
		l2.5,20C901.6,42.8,896.9,48,890.9,48z"/>
	<path fill="#343434" d="M891.7,51H34.3c-6,0-10.7-5.3-9.9-11.2l2.5-20c0.6-5,4.9-8.8,9.9-8.8h852.3c5,0,9.3,3.8,9.9,8.8l2.5,20
		C902.3,45.7,897.7,51,891.7,51z"/>
</g>
<g id="Screw__x5B_Bottom_Left_x5D_">
	<circle fill="#B4B4B4" cx="10" cy="26.8" r="5"/>
	<polygon fill="#808081" points="14,28 11,28 11,31 9,31 9,28 6,28 6,26 9,26 9,23 11,23 11,26 14,26 	"/>
</g>
</svg>
