<?xml version="1.0" encoding="utf-8"?>
<!-- Generator: Adobe Illustrator 18.0.0, SVG Export Plug-In . SVG Version: 6.00 Build 0)  -->
<!DOCTYPE svg PUBLIC "-//W3C//DTD SVG 1.1//EN" "http://www.w3.org/Graphics/SVG/1.1/DTD/svg11.dtd">
<svg version="1.1" id="Layer_1" xmlns="http://www.w3.org/2000/svg" xmlns:xlink="http://www.w3.org/1999/xlink" x="0px" y="0px"
	 viewBox="0 0 480 62" enable-background="new 0 0 480 62" xml:space="preserve">
<g id="Mouth_Plate__x5B_Bottom_x5D_">
	<path fill="#9A9999" d="M471.3,61H10.7C7.5,61,5,55.3,5.6,49.2L9,9.6C9.4,4.8,11.6,1,14.2,1h453.7c2.5,0,4.7,3.7,5.1,8.5l3.5,39.6
		C477,55.2,474.5,61,471.3,61z"/>
	<path id="Screw_Plate__x5B_Bottom_x5D_" fill="#F9D3DE" d="M477.8,16h-4.1L473,7.5c-0.4-4.8-2.6-8.5-5.1-8.5H14.2
		C11.6-1,9.4,2.8,9,7.6L8.3,16H4.7c-2.9,0-5.2,4.4-5.2,9.9v0.2c0,5.5,2.3,9.9,5.2,9.9h1.9l-1,11.2C5,53.3,7.5,59,10.7,59h460.6
		c3.2,0,5.7-5.8,5.1-11.9l-1-11.1h2.4c2.9,0,5.7-4.4,5.7-9.9v-0.2C483.5,20.4,480.7,16,477.8,16z"/>
	<path fill="#808081" d="M464.2,47L17.8,47c-3.1,0-5.6-5.3-5.2-11.2l1.3-20c0.3-5,2.5-8.8,5.2-8.8l443.8,0c2.6,0,4.8,3.8,5.2,8.8
		l1.3,20C469.8,41.8,467.3,47,464.2,47z"/>
	<path fill="#343434" d="M464.6,50H17.4c-3.1,0-5.6-5.3-5.2-11.2l1.3-20c0.3-5,2.5-8.8,5.2-8.8h444.6c2.6,0,4.8,3.8,5.2,8.8l1.3,20
		C470.1,44.7,467.7,50,464.6,50z"/>
</g>
</svg>
