<?xml version="1.0" encoding="utf-8"?>
<!-- Generator: Adobe Illustrator 18.0.0, SVG Export Plug-In . SVG Version: 6.00 Build 0)  -->
<!DOCTYPE svg PUBLIC "-//W3C//DTD SVG 1.1//EN" "http://www.w3.org/Graphics/SVG/1.1/DTD/svg11.dtd">
<svg version="1.1" id="Layer_1" xmlns="http://www.w3.org/2000/svg" xmlns:xlink="http://www.w3.org/1999/xlink" x="0px" y="0px"
	 viewBox="0 0 89.9 89.9" enable-background="new 0 0 89.9 89.9" xml:space="preserve">
<path fill="#B37D89" d="M44.9,1.7C21.1,1.7,1.7,21.1,1.7,44.9c0,23.9,19.4,43.2,43.2,43.2c23.9,0,43.2-19.4,43.2-43.2
	C88.2,21.1,68.8,1.7,44.9,1.7z M62.1,36.1c0,0.4,0,0.8,0,1.1c0,11.7-8.9,25.2-25.2,25.2c-5,0-9.7-1.5-13.6-4
	c0.7,0.1,1.4,0.1,2.1,0.1c4.2,0,8-1.4,11-3.8c-3.9-0.1-7.2-2.6-8.3-6.2c0.5,0.1,1.1,0.2,1.7,0.2c0.8,0,1.6-0.1,2.3-0.3
	c-4.1-0.8-7.1-4.4-7.1-8.7c0,0,0-0.1,0-0.1c1.2,0.7,2.6,1.1,4,1.1c-2.4-1.6-3.9-4.3-3.9-7.4c0-1.6,0.4-3.2,1.2-4.5
	c4.4,5.4,10.9,8.9,18.3,9.3c-0.2-0.6-0.2-1.3-0.2-2c0-4.9,4-8.9,8.9-8.9c2.5,0,4.9,1.1,6.5,2.8c2-0.4,3.9-1.1,5.6-2.2
	c-0.7,2.1-2.1,3.8-3.9,4.9c1.8-0.2,3.5-0.7,5.1-1.4C65.4,33.3,63.9,34.9,62.1,36.1z"/>
</svg>
