<?xml version="1.0" encoding="utf-8"?>
<!-- Generator: Adobe Illustrator 18.0.0, SVG Export Plug-In . SVG Version: 6.00 Build 0)  -->
<!DOCTYPE svg PUBLIC "-//W3C//DTD SVG 1.1//EN" "http://www.w3.org/Graphics/SVG/1.1/DTD/svg11.dtd">
<svg version="1.1" id="Layer_1" xmlns="http://www.w3.org/2000/svg" xmlns:xlink="http://www.w3.org/1999/xlink" x="0px" y="0px"
	 viewBox="0 0 89.9 89.9" enable-background="new 0 0 89.9 89.9" xml:space="preserve">
<path fill="#FFFFFF" d="M172,46.5L172,46.5l-14,0l0,0H172z M165,53.5l-0.5-0.4l-1.5-1.3l-4.4,3.7h12.9l-4.4-3.7l-1.5,1.3L165,53.5z
	 M158,47.6v7.3l4.3-3.6L158,47.6z M172,54.9v-7.3l-4.3,3.6L172,54.9z M165,52.4l7-5.8h-14L165,52.4z"/>
<path fill="#B37D88" d="M44.9,1.4c-24,0-43.5,19.5-43.5,43.5c0,24,19.5,43.5,43.5,43.5c24,0,43.5-19.5,43.5-43.5
	C88.4,20.9,69,1.4,44.9,1.4z M54.3,44.9h-6.1c0,9.7,0,21.7,0,21.7h-9c0,0,0-11.9,0-21.7h-4.3v-7.7h4.3v-5c0-3.6,1.7-9.1,9.1-9.1
	l6.7,0v7.5c0,0-4.1,0-4.9,0c-0.8,0-1.9,0.4-1.9,2.1v4.5H55L54.3,44.9z"/>
</svg>
